<?xml version="1.0" encoding="utf-8"?>
<!-- Generator: Adobe Illustrator 23.0.6, SVG Export Plug-In . SVG Version: 6.00 Build 0)  -->
<svg version="1.1" id="Capa_1" xmlns="http://www.w3.org/2000/svg" xmlns:xlink="http://www.w3.org/1999/xlink" x="0px" y="0px"
	 viewBox="0 0 330 81" style="enable-background:new 0 0 330 81;" xml:space="preserve">
<style type="text/css">
	.st0{fill:#FFFFFF;}
</style>
<g>
	<g>
		<g>
			<g>
				<path class="st0" d="M43.8,37.4c0,0.1-0.1,0.2-0.2,0.3c-0.1,0-0.2-0.1-0.2-0.3c0-0.1,0.1-0.2,0.2-0.1
					C43.7,37.3,43.8,37.4,43.8,37.4z"/>
				<path class="st0" d="M37.3,55.2l-0.2,0.1c-0.1,0.4-0.4,1-1.3,1.4c0,0,0.8,0,1.2-0.9c0,0.1-0.2,1-1.3,2.6c0,0,0,0.2,0.2,0
					C37.1,57.3,37.3,55.5,37.3,55.2z"/>
				<path class="st0" d="M47.2,56.7C47.3,56.6,47,56.7,47.2,56.7c0,0,0.1,0,0.2,0c0.4,0,0.7,0.2,1,0.4l0.2-0.1
					c-0.5-0.3-1.2-0.6-1.6-0.1L47.2,56.7z"/>
				<path class="st0" d="M49.7,58.6c0.2,0.2,0.4,0.2,0.7,0.2l0.2-0.1c-0.2,0-0.5-0.1-0.7-0.3L49.7,58.6z"/>
				<path class="st0" d="M56.5,28c0-0.1-0.1-0.1-0.2,0c-1.2,1.2-3.5,1.2-5,0.7c-0.2-0.1-0.3,0.1-0.3,0.1
					C52.8,29.3,55.6,29.5,56.5,28z"/>
				<path class="st0" d="M51.2,28.3c-0.3,0-0.3,0.1-0.3,0.1c0.4,0.1,0.7,0.2,1.1,0.2c0.8,0.3,1.6,0,1.6,0c-0.2,0-0.6,0-0.9,0
					c0.9-0.2,2.1-0.6,2.5-1.2C54.8,27.9,52.3,28.5,51.2,28.3z"/>
				<path class="st0" d="M36,26.2L36,26.2L36,26.2z"/>
				<path class="st0" d="M38.2,27.3c-0.5-0.8-1.8-1-2.3-1.1C37.1,26.5,38.2,27.3,38.2,27.3z"/>
				<path class="st0" d="M47.3,30.7c0.2,0.1,0.4-0.2,0.4-0.4c0-0.2-0.2-0.4-0.5-0.4c-0.2,0.1-0.4,0.2-0.4,0.6
					C46.8,30.6,47,30.8,47.3,30.7z"/>
				<path class="st0" d="M45.1,21.1c-0.2,0.1-0.4,0-0.4,0c0.4,0.5,0.8,0.1,0.8,0.1C45.7,21,45.1,21.1,45.1,21.1z"/>
				<path class="st0" d="M41.9,22.1l-0.2,0.1c0,0-0.2-0.1-0.1,0.2c0,0,0.3,0.4,0.4,0.3c0,0,0.2,0,0-0.2
					C42.1,22.5,42.1,22.1,41.9,22.1z"/>
				<path class="st0" d="M5.9,40c-0.3-0.3-2-0.4-2.4-0.4c-0.4,0-1.4-0.1-1.5-0.1c-0.1,0-0.2,0-0.3-0.1c-0.1-0.1-0.1-0.1-0.2-0.2
					l-0.2,0.1h0v0v0c-0.1,0.1-0.1,0.2-0.1,0.3c0,0.2,0,0.5,0,0.7c0,0.1,0.1,0.2,0.2,0.1c0,0,0.3-0.3,0.5-0.3c0.8,0,3,0,3.3,0.1
					c0.5,0.1,0.6,1,0.2,1.3l0,0c0,0-0.3,0.1-0.4,0.1c-1,0-1.9,0-2.9,0c-0.1,0-0.2,0-0.3-0.1c-0.1-0.1-0.2-0.2-0.3-0.1v0l0,0
					l-0.1,0.1c-0.2,0.1-0.1,0.5-0.1,0.7c0,0.1,0,1.1,0.1,1.1c0.1,0,0.3-0.2,0.4-0.3C2,43,3.6,43,4.1,43c0.6,0,1.3,0,1.8-0.4
					c0.4-0.3,0.3-0.8,0.3-1.2C6.2,40.9,6.3,40.3,5.9,40z M1.6,40.2L1.6,40.2L1.6,40.2L1.6,40.2z M5.3,42.8c0.2,0,0.4-0.1,0.5-0.2
					C5.6,42.8,5.4,42.8,5.3,42.8z"/>
				<polyline class="st0" points="50.8,7.6 50.8,7.6 50.8,7.6 50.8,7.6 				"/>
				<line class="st0" x1="1.8" y1="37.8" x2="1.8" y2="37.8"/>
				<path class="st0" d="M5.9,34.9c-0.1,0-1-0.2-1.4-0.2c-0.7-0.1-1.4-0.2-2.1-0.4c-0.1,0-0.2-0.1-0.2-0.2c0-0.1-0.1-0.3-0.3-0.2h0
					L1.7,34l0,0v0c-0.1,0.1-0.1,0.3-0.1,0.5c0,0.2,0,0.5-0.1,0.7c0,0.1,0,0.3,0.2,0.2v0l0,0l0.1,0c0.1-0.1,0.1-0.1,0.2-0.2
					c0.1,0,1.8,0.1,1.7,0.2c0.1-0.1-1.2,0.8-1.7,1c-0.2,0.1-0.4,0.2-0.6,0.4c-0.1,0.1-0.2,0.9-0.2,1.1c-0.1,0.3,0.1,0.3,0.1,0.3
					c0,0,0,0,0,0l0.4-0.3c0.2-0.1,0.3,0,0.5,0c0.9,0.1,3.3,0.2,3.3,0.3l0.1,0.2c0,0.3,0.2,0.3,0.2,0.3c0.2,0.1,0.2-0.3,0.2-0.4
					c0-0.3,0.1-0.7,0.1-1c0-0.2-0.2,0-0.2,0c0,0-0.1,0.3-0.2,0.3c-0.1,0-0.3,0-0.5,0c-0.3,0-2.1-0.2-2.2-0.4
					c0.6-0.4,3.2-1.9,3.2-1.9v0l0,0C6.5,35,5.9,34.9,5.9,34.9 M1.8,35.2L1.8,35.2L2,35.1L1.8,35.2"/>
				<polyline class="st0" points="1.7,37.8 1.6,37.9 1.7,37.8 				"/>
				<path class="st0" d="M53.9,13.7c-0.2,0.3-0.4,0.4-0.7,0.6h0c0,0-0.2,0.2,0.2,0.4c0.2,0.1,0.4,0.3,0.6,0.4c0.4,0.3,0.4,0,0.4-0.1
					c0-0.3,0-0.6,0.2-0.8c0.4-0.7,0.9-1.3,1.3-2c0.1,0,0,0.4,0,0.5c0,0.5-0.3,2.9-0.4,3.6c0,0.3,0.2,0.5,0.4,0.4l0.1-0.1
					c0.1-0.2,0.1-0.5,0.3-0.8c0-0.1,0.1-0.1,0.2-0.2c0.6-0.7,1.1-1.4,1.7-2c0.2-0.2,0.3-0.4,0.6-0.4l0.3-0.1c0.1-0.1,0.1-0.1,0-0.3
					c-0.2-0.2-0.5-0.4-0.7-0.7C58.3,12,58.2,12,58.2,12c0,0-0.3,0-0.2,0.3c0.1,0.2,0,0.6-0.2,0.8c-0.3,0.4-0.5,0.7-0.7,1.1
					c-0.1-0.1,0.1-1.7,0.1-2.3c0-0.3,0.1-0.7-0.1-1c-0.2-0.2-0.8-0.7-1-0.7l-0.2,0.1c-0.1,0.1,0,0.2,0,0.3c0,0.2,0,0.3-0.1,0.5
					c0,0.2-0.1,0.4-0.3,0.5C55.3,11.9,54.2,13.3,53.9,13.7z"/>
				<polyline class="st0" points="2.3,32.7 2.3,32.7 2.3,32.7 2.3,32.7 				"/>
				<path class="st0" d="M6.7,33.5c0-0.3,0.1-0.5,0.1-0.7c0-0.1,0.1-0.2,0.1-0.4c0.1-0.2-0.1-0.3-0.2-0.2c0,0-0.4,0.2-0.9,0.1
					c-0.5-0.1-2.6-0.5-2.9-0.9c-0.1-0.1-0.3-0.5-0.5-0.4l0,0c0,0-0.1,0-0.2,0.6C2.1,32,2,32.4,2,32.7c0,0.2,0.1,0.1,0.1,0.1
					c0.1,0,0.2-0.2,0.3-0.2c0.1,0,2.9,0.5,3.5,0.8c0.2,0.1,0.4,0.3,0.5,0.5C6.5,34,6.6,33.6,6.7,33.5z M2.3,32.7L2.3,32.7L2.3,32.7z
					"/>
				<path class="st0" d="M64.8,28.9c-0.2,0.2,3.5,0.1,3.4,0.2c-0.1,0-4.5-0.1-4.3,0.3c0.1,0.2,0.2,0.5,0.2,0.7
					c0,0.1,0.2,0.7,0.3,0.6c0.2-0.1,0.3-0.3,0.4-0.5c0.1-0.1,0.2-0.1,0.3-0.2c0,0,2.6-1,3-1.1c0.1,0,0.2,0.1,0.3,0.1
					c0,0,0.2,0,0.1-0.4c-0.1-0.2-0.2-0.5-0.2-0.7c0-0.2,0-0.7-0.3-0.5v0l-0.2,0.2c0,0-0.5,0.3-0.5,0.3
					C66.8,28.1,64.8,28.9,64.8,28.9z M64.8,30.2L64.8,30.2L64.8,30.2L64.8,30.2z M64.8,30.2L64.8,30.2L64.8,30.2z"/>
				<path class="st0" d="M13,13c0.2,0,0.3,0.1,0.4,0.3c0.7,0.7,1.4,1.3,2,2.2c0.1,0.2,0.3,0.5,0.3,0.8c0.1,0.4,0.4,0.1,0.4,0.1v0
					c0.4-0.4,1-0.8,1-0.8c0.1,0,0.3-0.2,0.1-0.3h0c-0.2,0-0.4-0.1-0.6-0.3c-0.5-0.6-2-2.2-2.1-2.4c-0.1-0.2-0.2-0.5-0.3-0.7L14,11.7
					l0,0c0,0-0.5,0.3-1.2,1c-0.1,0.1-0.1,0.1-0.2,0.2C12.6,13,12.9,13,13,13z"/>
				<path class="st0" d="M57.2,17.3c-0.1,0.7,0.3,1.4,0.9,1.7c0.9,0.5,2-0.2,2.6-0.9c0.5-0.5,0.9-1,1-1.7c0.1-0.8-0.3-1.4-0.9-1.8
					c-0.9-0.6-2,0.2-2.7,0.9C57.6,16,57.3,16.7,57.2,17.3z M59.2,16.1c0.3-0.2,1.8-1.6,1.9-0.6c0,0.3-0.3,0.7-0.5,0.9
					c-0.3,0.4-0.7,0.8-1,1.1c-0.1,0.1-0.2,0.3-0.4,0.4c-0.1,0.1-0.2,0.2-0.3,0.3c-0.1,0.1-0.2,0.1-0.3,0.1c-0.3,0.1-0.5-0.2-0.6-0.5
					c-0.1-0.3,0.1-0.6,0.2-0.8C58.5,16.8,58.9,16.5,59.2,16.1z"/>
				<path class="st0" d="M6.9,20.8c0.4,0,0.7,0.3,1,0.5c0.6,0.5,1.3,0.9,1.9,1.4c0.1,0.2,0.2,0.3,0.3,0.5c0,0.1,0,0.3,0.2,0.3h0v0
					c0.1,0,0.7-0.9,0.9-1.3c0.2-0.3-0.3-0.3-0.5-0.3c-0.2-0.1-0.4-0.2-0.5-0.3c-0.3-0.2-0.9-0.5-0.5-0.8c0.3-0.1,0.7-0.1,1-0.1
					c0.5,0,1-0.1,1.5-0.2c0.2-0.1,0.5-0.2,0.5-0.4c0.1-0.3-0.4-0.2-0.5-0.2c-0.2,0-1.5-0.2-1.9-0.2c-0.2,0-0.3,0-0.3-0.2
					c0-0.3-0.1-0.6-0.3-0.8c-0.4-0.4-1-0.5-1.5-0.2c0,0-0.4,0.3-1.2,1.6c-0.1,0.2-0.3,0.4-0.4,0.6C6.3,20.9,6.6,20.8,6.9,20.8z
					 M8.9,20.7L8.9,20.7L8.9,20.7L8.9,20.7z M7.7,19.5c0.1-0.1,0.2-0.3,0.3-0.4c0.4-0.1,0.8,0.3,1,0.5c0.3,0.3,0.1,0.7-0.1,1
					c-0.2,0-0.4-0.2-0.5-0.3C8.2,20.2,8,20,7.8,19.9C7.7,19.8,7.6,19.7,7.7,19.5z"/>
				<path class="st0" d="M65.6,35.1L65.6,35.1L65.6,35.1l1.8-1.4l0.4,0.2c0.4,0.1,0.8,0.1,1.1-0.1c0.4-0.2,0.7-0.6,0.8-1.1
					c0-0.5-0.1-1-0.3-1.4c-0.1-0.3-0.2-0.7-0.2-1c-0.1-0.2-0.1-0.3-0.2-0.2h0l0,0l0,0l0,0h0l0,0l0,0l0,0l-0.1,0.1
					c-0.1,0.1-0.2,0.2-0.3,0.3c-0.1,0-0.2,0.1-0.3,0.1c-0.2,0-2.3,0.6-2.8,0.7c-0.2,0-0.4,0-0.6-0.1c-0.1-0.1-0.5,0-0.4,0.3
					c0.2,0.4,0.2,1,0.3,1.5c0,0.1,0.2,0,0.4-0.1c0.1-0.1,0.3-0.2,0.5-0.3c0.2-0.1,0.9-0.3,1.1-0.3c0.5,0.1-0.2,0.7-0.4,0.9
					c-0.4,0.4-0.8,0.8-1,1.4c-0.1,0.2-0.2,0.6,0.1,0.6L65.6,35.1z M69,32.7L69,32.7L69,32.7z M68.7,31.7L68.7,31.7L68.7,31.7
					c0.2,0,0.3,0,0.3,0.3c0.1,0.3,0.1,0.5-0.1,0.7c-0.1,0-0.2,0.1-0.3,0.1l-0.2,0.1c-0.2,0-0.4,0-0.6,0c-0.2-0.1-0.5-0.7-0.4-0.9
					C67.9,31.9,68.3,31.8,68.7,31.7z M67.5,32L67.5,32L67.5,32L67.5,32z M67.5,32L67.5,32L67.5,32L67.5,32z"/>
				<path class="st0" d="M11.6,17.5c0,0,0.8-0.5,1.1-0.6c0.5-0.3,1.1-0.4,1.1,0.2c0,0.4-0.3,0.7-0.5,0.9c-0.4,0.4-1,0.5-1.5,0.6
					c-0.1,0-0.2,0.1-0.3,0.1v0c0,0-0.1,0.1,0,0.2c0.2,0.1,0.5,0.2,0.8,0.4c0.1,0,0.4,0.2,0.5,0.2l0.1-0.1c0.2-0.3,0.4-0.6,0.6-0.8
					c0.3-0.3,0.5-0.5,0.7-0.8c0.2-0.3,0.2-0.7,0.2-1.1c-0.1-0.7-0.6-1.1-1.3-1.1c-0.6,0-2,0.8-2.1,0.9c-0.3,0.1-0.6,0.2-0.8-0.1
					c-0.2-0.3,0.1-0.7,0.3-0.9c0.3-0.1,0.6-0.2,0.9-0.2c0.3,0,0.6,0,0.8-0.2c0.3-0.2-0.6-0.5-0.7-0.6c-0.1-0.1-0.4-0.1-0.4-0.1
					c-0.1-0.1-0.2,0.4-0.4,0.5c-0.1,0-0.8,0.5-0.9,0.6c-0.4,0.5-0.6,1.3-0.1,1.8C10.4,17.7,11.1,17.7,11.6,17.5z"/>
				<path class="st0" d="M61.8,20.8c0.1,0.5,0.2,1.1-0.3,1.4c-0.8,0.4-1.1-1-1.2-1.6c0-0.4,0.1-0.7,0.2-1.1c0-0.2-0.1-0.2-0.3-0.2
					l0,0c0,0-0.6,0.6-0.8,0.9c-0.1,0.2-0.3,0.4-0.1,0.6c0.3,0.3,0.5,0.6,0.6,1c0.2,0.7,0.8,1.1,1.5,1.1c0.4,0,0.8-0.3,1.1-0.6
					c0.5-0.5,0.6-1.1,0.5-1.8c-0.1-0.5-0.3-1-0.4-1.5c0-0.1,0-0.2,0.1-0.3c0.6-0.2,0.8,0.8,0.8,1.2c0,0.3,0,0.6-0.1,0.8
					c0,0.1-0.1,0.2,0,0.2c0.2,0,1-0.7,1-0.7c0.3-0.2-0.2-0.5-0.3-0.7c-0.1-0.2-0.1-0.3-0.2-0.5c0-0.1-0.1-0.2-0.2-0.3
					c-0.3-0.5-1.1-1.1-1.7-0.8l-0.2,0.1c0,0-0.5,0.4-0.5,0.9C61.5,19.6,61.7,20.2,61.8,20.8z"/>
				<path class="st0" d="M69.3,39.6c0,0-0.7,0-1,0.2c-0.4,0.4-0.7,1.2-0.9,1.8c-0.2,0.5-0.4,0.9-1,1c-1.2-0.5-0.5-1.8-0.1-2.2
					c0.3-0.3,0.5-0.5,0.7-0.6c0,0,0.2-0.2,0-0.2L65.6,40c0.1,0.3,0.1,0.8-0.1,1.2c-0.2,0.7,0,1.6,0.6,2c0.3,0.2,0.8,0.3,1.2,0.2
					c0.7-0.1,1-0.6,1.3-1.2c0.4-0.8,0.2-1.2,0.7-1.6c0.1-0.1,0.2-0.1,0.3-0.1c0.6,0.2,0.3,1.2,0.1,1.6c-0.2,0.2-0.8,0.7-0.8,0.7
					c0,0-0.1,0.2,0.1,0.2c0.2,0,1-0.3,1-0.3c0.2-0.1,0.1-0.3,0.1-0.5c0-0.2,0.1-0.7,0.1-0.8C70.3,40.7,70,39.7,69.3,39.6z"/>
				<path class="st0" d="M15.4,11c0.4,0.1,0.6,0.4,0.8,0.7c0.3,0.4,0.5,0.8,0.8,1.2c0.2,0.3,0.4,0.6,0.6,1c0.1,0.2,0.1,0.3,0.1,0.5
					c0,0.1-0.1,0.3,0.1,0.3l0.1-0.1c0.2-0.1,0.3-0.3,0.5-0.4c0.3-0.2,1.2-0.9,1.3-1.1c0.3-0.4,0.4-0.8,0.3-1.3
					c-0.1-0.8-0.7-1.6-1.3-2.1c-0.6-0.4-1.2-0.3-1.8,0h0c-0.2,0.1-1.6,0.9-1.7,1.1C15.1,10.9,15.3,11,15.4,11z M16.9,10.1
					c0.4-0.2,0.8,0.2,1,0.5c0.3,0.4,0.6,0.9,0.8,1.3c0.2,0.4,0.5,0.9,0.1,1.3c-0.2,0.1-0.3-0.1-0.4-0.3c-0.2-0.3-0.4-0.6-0.6-0.9
					c-0.3-0.5-0.6-1-0.9-1.5l0,0l0,0C16.7,10.3,16.7,10.2,16.9,10.1z"/>
				<path class="st0" d="M24.1,6c0.2,0.1,0.4,0.3,0.5,0.5c0.3,1,0.5,2,0.8,3c0.1,0.2,0,0.3,0,0.5c0,0.1-0.1,0.2,0,0.4
					c0.1,0.1,0.7-0.1,0.8-0.2c0.4-0.2,0.9-0.3,1.3-0.5c1.2-0.8,1-2.4,0.5-3.5c-0.2-0.5-0.6-0.9-1.1-1c-0.6-0.1-1.3,0.1-1.9,0.3
					c-0.3,0.1-0.5,0.2-0.8,0.4C24,5.8,24,5.9,24.1,6z M25.7,5.7c0.9-0.4,1.2,1.5,1.4,2.1c0.1,0.5,0.3,1.2-0.2,1.5
					c-0.3,0.1-0.4-0.2-0.4-0.5c-0.1-0.4-0.2-0.7-0.3-1.1C26,7.2,25.8,6.6,25.6,6C25.6,5.9,25.6,5.8,25.7,5.7z"/>
				<path class="st0" d="M31.5,4.3c0.1,0.1,0.1,0.3,0.1,0.4c0.1,0.4,0.2,0.8,0.2,1.2C31.9,6.6,32,7.2,32,7.8c0,0.2,0,0.3,0,0.5
					c0,0.1-0.1,0.2-0.1,0.3c-0.1,0.2,0.2,0.2,0.3,0.2c0.6-0.1,1.3-0.1,1.9-0.3c0.2-0.1,0.3-0.1,0.5-0.2c0.1-0.1,0.2-0.1,0.3-0.2
					c0.5-0.5,0.6-1.2,0.6-1.8c0-0.6-0.1-1.3-0.4-1.8c-0.2-0.4-0.7-0.6-1.1-0.7c-0.7-0.1-1.4,0-2.1,0.1c-0.1,0-0.6,0.1-0.4,0.3
					C31.3,4.2,31.4,4.2,31.5,4.3z M33,4.1c1.1-0.3,1,1.9,1,2.4C34,7,34,7.6,33.6,8c-0.3,0.1-0.3-0.2-0.4-0.5c0-0.4-0.1-0.8-0.1-1.2
					C33.1,5.7,33,5,33,4.3L33,4.1z M32.9,4.1L32.9,4.1L32.9,4.1L32.9,4.1z"/>
				<path class="st0" d="M20.6,8.4c0.1,0.6,0.1,1.1,0.2,1.7c0,0.4,0.1,0.9,0.1,1.3c0,0.3,0,0.5-0.1,0.8c0,0.1-0.2,0.3-0.2,0.4
					c0,0.1,0.3,0,0.3,0l0.1-0.1c0.2-0.2,0.9-0.5,1-0.5c0.1-0.1,0.2-0.1,0.2-0.2c0-0.2-0.4-0.3-0.4-0.4c-0.1-0.2-0.1-0.5,0-0.7
					c0.2-0.1,0.9-0.4,1-0.4c0.1,0,0.4,0.4,0.4,0.5c0,0.1,0.1,0.2,0,0.3c0,0.1,0,0.3,0.2,0.2c0.1,0,1.5-0.7,1.5-0.7
					c0.3-0.2-0.3-0.3-0.4-0.4c-0.2-0.2-1.8-2-2.3-2.8C22,7.2,21.9,7,21.9,6.8c0-0.1-0.9,0.2-1,0.2c-0.1,0-0.6,0.3-0.7,0.4l0.1,0.3
					C20.6,7.9,20.6,8.2,20.6,8.4z M21.6,10.7L21.6,10.7L21.6,10.7z M22.1,9.5c0.1,0.1,0.2,0.2,0.1,0.3c0,0-0.4,0.2-0.5,0.2
					c-0.1,0-0.2,0-0.2,0l-0.1-0.4c0-0.4-0.1-1.2-0.1-1.2C21.5,8.6,22,9.4,22.1,9.5z M21.3,12.3c-0.1,0.1-0.3,0.2-0.4,0.3
					C21,12.5,21.1,12.4,21.3,12.3z"/>
				<path class="st0" d="M62.7,24.5c-0.3,0-0.5-0.1-0.8,0l-0.2,0c-0.1,0.1,0.1,0.3,0.1,0.4c0.1,0.1,0.2,0.5,0.2,0.6
					c0,0.2,0.2,0.1,0.3,0l0.3-0.3c0.2-0.1,0.4-0.2,0.6-0.2c0.2,0,0.3,0,0.3,0.2c0.1,0.2,0.2,0.5,0.3,0.7c0.1,0.1,0.1,0.3,0.1,0.4
					c0,0.1-0.7,0.5-0.8,0.6l-0.2,0h0c0,0-0.1,0.1-0.1,0.2c0,0.1,0.1,0.3,0.2,0.4c0.1,0.2,0.2,0.5,0.2,0.7c0.2,0.5,0.4,0.3,0.4,0.3
					c0.1-0.1,0.1-0.1,0.1-0.2c0.1-0.3,0.4-0.5,0.7-0.7c0.7-0.7,2.1-2,2.2-2.1c0,0,0.6-0.1,0.6-0.2l0,0l0,0h0
					c0.3-0.2-0.6-1.3-0.6-1.5c0-0.2-0.2-0.2-0.2-0.2c0,0-0.2,0-0.4,0.4l-0.3,0.1C65,24.3,62.9,24.5,62.7,24.5z M62.7,25.2L62.7,25.2
					L62.7,25.2L62.7,25.2z M66.7,25.4L66.7,25.4L66.7,25.4L66.7,25.4L66.7,25.4L66.7,25.4L66.7,25.4z M66.7,25.4L66.7,25.4
					L66.7,25.4L66.7,25.4z M64.8,25.7L64.8,25.7L64.8,25.7L64.8,25.7z M64.9,25.7L64.9,25.7L64.9,25.7L64.9,25.7L64.9,25.7z
					 M64.4,24.8c0.1,0,1,0,1,0c0,0,0.2,0.1,0.1,0.2l-0.7,0.7h-0.2c-0.1-0.1-0.1-0.4-0.2-0.5C64.4,25,64.3,24.9,64.4,24.8z"/>
				<path class="st0" d="M4.4,25.2l0.2-0.1c0.1-0.1,0.1-0.1,0.3-0.1c0.4,0,0.7,0.3,1,0.5c0.6,0.3,1.1,0.6,1.7,1h0
					C7.6,26.7,8,26.9,8.1,27c0.1,0.1,0,0.3,0.2,0.3l0.1-0.1h0h0l1.5-2.7c0,0-1-1.6-1.3-1c-0.1,0.2,0.2,0.5,0.2,0.6
					c0.1,0.2,0.1,0.5,0.1,0.7c0,0.2,0,0.7-0.2,0.9c-0.1,0-1.4-0.8-1.5-0.8c0,0,0.1-0.5,0.4-0.6c0.1,0,0.4,0,0.5-0.1
					c0.2-0.2-1-0.7-1.3-0.8c-0.3-0.1-0.1,0.5,0,0.6c0,0.1,0.1,0.4-0.1,0.6c-0.3-0.2-1.2-0.6-1.3-0.7c-0.1,0,0.3-0.9,0.5-1
					c0.2-0.1,0.7-0.1,0.8-0.2c0.2-0.1,0-0.3-0.2-0.3c-0.2,0-0.4-0.1-0.6-0.1c-0.1,0-0.3,0-0.3,0c-0.2,0.2-0.9,1.6-1,2
					C4.5,24.6,4.1,25.3,4.4,25.2z M6.7,24.6L6.7,24.6L6.7,24.6z M4.6,25.1l-0.1,0.1L4.6,25.1z"/>
				<path class="st0" d="M51.7,9.2c-0.3,0.6-1.4,2.5-1.7,2.7c-0.5,0.1-0.4,0.2-0.4,0.2c-0.2,0.2,0.4,0.3,0.5,0.4
					c0.5,0.3,1.8,1.1,2,1.2c0.1,0.1,0.2,0.2,0.4,0.2c0,0,0.3,0,1-1c0.1-0.1,0.3-0.4,0-0.3c-0.2,0-0.4,0.2-0.6,0.3
					c-0.4,0.1-0.9,0-1.3-0.2c-0.3-0.2-0.2-0.3-0.1-0.6c0.2-0.4,0.5-0.9,0.7-1.3c0.1,0,0.2,0.1,0.3,0.2c0.2,0.2,0.3,0.4,0.3,0.7
					c0,0.2,0.2,0.3,0.3,0.1c0.2-0.2,0.3-0.6,0.4-0.8c0.1-0.1,0.3-0.6,0.1-0.7c-0.1,0-0.3,0.1-0.5,0.1l-0.3,0
					c-0.2-0.1-0.3-0.1-0.4-0.2c0.2-0.4,0.5-0.8,0.7-1.1c0.3,0,0.5,0.4,0.7,0.6c0.1,0.2,0.2,0.5,0.3,0.7c0.1,0.2,0.3,0.2,0.3,0.2
					c0.1,0,0.1-0.1,0.2-0.2c0.1-0.2,0.3-0.7,0.3-0.8c0-0.1-0.3-0.2-0.4-0.3c-0.6-0.4-1.3-0.9-1.9-1.3C52.6,8,52,7.7,52,8.1
					c0,0.1,0,0.3,0,0.4C52,8.7,51.9,9,51.7,9.2z M50,11.9L50,11.9L50,11.9L50,11.9z"/>
				<path class="st0" d="M65.5,37.8c0,0.3,0,0.5,0,0.8c0,0.1,0,0.1,0.1,0.2l0.1,0c0,0,1,0.1,1.2,0.2c0.3,0.1,0.4-0.1,0.2-0.2
					c-0.7-0.3-1.1-1.1-1.1-1.5c-0.1-0.4,0.1-0.4,0.4-0.4c0.5,0,1-0.1,1.4-0.1c0,0.1,0,0.3,0,0.4c-0.1,0.3-0.2,0.4-0.4,0.6
					c-0.1,0.1-0.1,0.3,0.1,0.3c0.3-0.1,0.8-0.2,1.1-0.3c0.3,0,0.1-0.2,0.1-0.2c-0.5-0.4-0.4-0.6-0.4-0.7c-0.1-0.2,0-0.2,0.2-0.2
					c0.4,0,0.8-0.1,1.3-0.1c0.2,0.2,0,1-0.1,1.2c-0.1,0.3-0.3,0.4-0.5,0.6c0,0-0.2,0.3,0.2,0.3l0.8-0.3c0.1-0.1,0-0.2,0-0.3
					c0-0.8-0.1-1.5-0.1-2.3c0-0.4-0.1-0.6-0.1-0.6c-0.1-0.1-0.1-0.1-0.2,0c-0.1,0.1-0.2,0.2-0.3,0.2c-0.2,0.1-1.3,0-1.5,0.2
					c-0.3,0.2-1.9,0.3-2.2,0.2c-0.1-0.1-0.1-0.1-0.3-0.2l0,0c-0.3,0-0.2,0.5-0.2,0.6C65.4,36.7,65.5,37.3,65.5,37.8z M65.7,35.8
					L65.7,35.8L65.7,35.8L65.7,35.8z M65.5,35.6L65.5,35.6L65.5,35.6L65.5,35.6z"/>
				<path class="st0" d="M2.7,30.3c0.1-0.1,0-0.1,0.1-0.1c0.1,0,0.2,0,0.4,0c0.2,0,3.7-0.1,3.8,0c0.2,0.4,0.4,0.1,0.4,0.1
					c0.2-0.3,0.2-0.6,0.3-0.9c0-0.1,0.2-0.5,0.1-0.6c-0.1,0-0.3,0-0.3,0c-0.2,0-0.3,0-0.5-0.2c-0.9-0.6-1.8-1.3-2.6-2.1
					c-0.1-0.1-0.2-0.2-0.2-0.3c-0.1-0.1-0.1-0.5-0.3-0.4c-0.3,0.2-0.5,1.2-0.5,1.3c0,0.1,0.3,0,0.3,0C4,27.2,4.7,27.8,5,28
					c0.1,0.1,1.1,0.7,0.9,1c-0.1,0-2,0-2.2,0c-0.3,0-0.4-0.1-0.6-0.2c-0.1-0.1-0.2,0-0.2,0v0l0,0c-0.1,0-0.4,1.2-0.4,1.4
					C2.5,30.3,2.6,30.4,2.7,30.3z M3.7,27.2L3.7,27.2L3.7,27.2z M2.8,30.2L2.8,30.2L2.8,30.2L2.8,30.2z"/>
				<path class="st0" d="M41,12.2c0,0,0.1-0.1,0-0.2c-0.5-0.3-0.9-0.8-1.3-1.2c-0.2-0.2-0.4-0.4-0.6-0.6l-0.3-0.3
					c0,0,0.4,0.6,0.6,0.9C39.8,11.3,40.3,11.8,41,12.2z"/>
				<path class="st0" d="M38.4,13.6c0.1,0.2,0.5,0.3,0.7,0.2l0.2-0.2c-0.3,0.1-0.5-0.1-0.7-0.3c-0.2-0.2-0.4-0.4-0.6-0.6
					c-0.2-0.1-0.6-0.3-0.8-0.1v0c0.2,0.2,0.3,0.5,0.3,0.7c0,0.3,0,0.6,0.3,0.7c0.2,0,0.6-0.1,0.6-0.1l0,0c-0.4,0.2-0.6-0.1-0.6-0.4
					c0-0.4-0.2-0.6-0.2-0.6C37.9,13.1,37.9,13,38.4,13.6z M39.2,13.7L39.2,13.7L39.2,13.7L39.2,13.7z"/>
				<path class="st0" d="M45,31.7L45,31.7c0.4,0.4,0.8,0.7,1.2,1c0.6,0.3,1.3,0.3,1.9,0c0.9-0.5,1.2-1.6,1.3-2.2l-0.2,0.1
					c-0.1,0.5-0.6,1.7-2.1,1.8C45.8,32.5,45,31.7,45,31.7z M48.1,32.2L48.1,32.2L48.1,32.2L48.1,32.2z"/>
				<path class="st0" d="M43.4,30.6c0,0.6,0.5,1,0.9,1.3l0,0l0.1-0.1c0,0-0.8-0.7-0.8-1.4L43.4,30.6z"/>
				<path class="st0" d="M49.3,37.2c-0.4-0.4-1.6-0.7-1.7-0.7c0.5,0.2,1.2,0.4,1.5,0.9c0,0,0,0.9,0,1.5c0,0.6-0.2,1.4-0.7,1.8
					l0.2-0.1c0.7-0.6,0.7-1.8,0.7-2.7c-0.1-0.6,0.3-1,0.8-1.3C49.8,36.6,49.5,36.9,49.3,37.2z"/>
				<path class="st0" d="M44,36.2c0.5-0.2,1-0.3,1.5-0.2l0.2-0.1c-0.5,0-1.1,0.1-1.6,0.3L44,36.2z"/>
				<path class="st0" d="M52.4,46.9l-0.3,0.2c0,0,0,0.1,0,0.3c0,0.4-0.4,0.6-0.4,0.6C52.5,47.9,52.5,47.2,52.4,46.9"/>
				<path class="st0" d="M53.2,44.2L53,44.3c0,0.5,0,1-0.2,1.5c-0.1,0.1-0.2,0.3-0.3,0.4l-0.1,0.1c0,0-0.1,0-0.1,0s0,0,0,0
					c0,0,0,0,0,0s0.1-0.1,0.1-0.1C53.1,45.9,53.2,45,53.2,44.2"/>
				<path class="st0" d="M51.1,41.2l-0.2,0.1c1.2,0.2,2.1,1.1,2.3,2.3C53.2,43.6,52.9,41.2,51.1,41.2z"/>
				<path class="st0" d="M52.3,45.1l0.1-0.3c-0.4-2-3.3-2.1-3.3-2.1C50.5,43,51.6,43.6,52.3,45.1z"/>
				<path class="st0" d="M50,41.2c-0.8,0-1.4-0.1-2.4,0.2c-0.1,0-0.2,0.1-0.3,0.1c-0.1,0-0.4,0-0.5,0c-0.3,0.1-0.4,0.3-0.4,0.3
					c0.1-0.1,0.5-0.3,0.9-0.1c0.1,0,0.7-0.3,2.5-0.3L50,41.2z"/>
				<path class="st0" d="M35.6,45.8c-1-1.2-2-2.4-3-3.6l-0.1,0l0,0c0.9,1.2,1.9,2.5,2.9,3.6l0,0l0,0v0v0l0.1,0l0,0v0L35.6,45.8
					L35.6,45.8L35.6,45.8L35.6,45.8L35.6,45.8z"/>
				<path class="st0" d="M39.6,44.2c-0.9,0-1.6,0-2.5,0c-0.2,0-0.8,0.1-0.9,0c-0.1-0.2-0.2-0.4-0.3-0.7c-0.6-0.9-1.2-1.7-1.8-2.5
					c-0.4-0.5-1.2-1.1-1.8-0.7c-0.2,0.1-0.3,0.3-0.4,0.5c0-0.1,0.5-0.4,0.7-0.4c0.5-0.1,1.1,0.5,1.4,0.8c0.6,0.8,1.3,1.6,1.8,2.5
					c0.1,0.2,0.2,0.4,0.3,0.6c0,0.1,0,0.1,0.1,0.1c0.2,0,0.6,0.1,0.9,0.1c0.9,0,1.7,0,2.5,0c1.4,0,3,0,4.3-0.2l0.1-0.2
					C42.5,44.2,41,44.1,39.6,44.2z"/>
				<path class="st0" d="M43.5,45c-0.7,0-1.4,0-2.2,0l-0.2,0.1c0.7,0,1.4,0,2.2,0L43.5,45z"/>
				<path class="st0" d="M39.7,45.4c-0.8,0-1.6,0-2.4,0L37,45.6c0.8,0,1.6,0,2.4,0L39.7,45.4z"/>
				<path class="st0" d="M36,46c0.5,0,1.1,0,1.6,0l0.2-0.1c-0.5,0-1.1,0-1.6,0L36,46z"/>
				<path class="st0" d="M36.5,46.2l-0.2,0.1c2.8,0.1,5.6,0.2,8.4,0.2l0.2-0.1C42,46.4,39.2,46.3,36.5,46.2z"/>
				<path class="st0" d="M42.7,46.2c0.6,0,1.2,0,1.8,0l0.2-0.1c-0.6,0-1.2,0-1.8,0L42.7,46.2z"/>
				<path class="st0" d="M34,55.5l0.2-0.1c-1.1,0.4-2.4,0.1-3.4-0.4c-1.3-0.6-2.4-1.5-3.4-2.5c-1-1-2.6-3.8-2.6-3.8
					c0.5,1.4,1.3,2.8,2.3,3.8c1,1,2.2,1.9,3.5,2.6C31.6,55.6,32.9,55.9,34,55.5z"/>
				<path class="st0" d="M41.4,60.2L41,60.3c0.1,0.1,0.2,0,0.3,0.2c0.1,0.3,0,0.8,0,0.8C41.3,61.4,41.7,60.4,41.4,60.2z"/>
				<path class="st0" d="M39.1,67.4c0,0,1.6-0.4,0.6-1.5l-0.3,0.4c-0.1,0.1,0.1,0.2,0.2,0.1c0,0,0.2,0.2,0.1,0.5
					C39.5,67.1,39.1,67.4,39.1,67.4z"/>
				<path class="st0" d="M35.3,58.6c-0.2-0.1-0.4,0-0.5-0.1c-3.3-0.3-5.8-2.1-5.8-2.1c1.2,1.3,2.8,2.2,4.5,2.6
					C35,59.4,35.4,58.8,35.3,58.6z"/>
				<path class="st0" d="M30.2,55.5c0.5,0.3,1.7,0.7,2.2,0.8c-1-0.3-3.4-1.7-3.4-1.7C29.3,54.9,29.7,55.2,30.2,55.5z"/>
				<path class="st0" d="M38.7,58.9c-0.3,1.2-1.6,1.8-1.6,1.8C38.4,60.8,38.8,59.6,38.7,58.9z"/>
				<path class="st0" d="M31.2,61.1c0,0,0.2-1-1-2.4c-1.8-2.2-3.7-5.7-3.7-5.7c0.3,1,1.2,2.7,2,3.9c0.4,0.7,1,1.3,1.5,1.9
					c0.4,0.6,0.9,1.2,1,2c-0.2-0.3-1.8-2.3-2.2-2.9c-0.5-0.8-1-1.7-1.4-2.6c0,0,0.7,1.8,1.1,2.6C29.9,60.3,31.1,61.1,31.2,61.1z"/>
				<path class="st0" d="M26.2,57.6c0.1,0.7,0.2,1.5,0.3,2.2l0.1,0l0,0c0.1-0.1,0-0.4,0-0.5c0-0.3,0-0.5,0-0.7c0-0.5-0.1-1-0.2-1.5
					c-0.2-0.9-0.4-1.8-0.8-2.7l0,0c-0.1,0.1-0.2,0.1-0.3,0.2l0,0l0,0c0.3,0.4,0.4,0.8,0.6,1.3C26,56.4,26.1,57,26.2,57.6z"/>
				<path class="st0" d="M30.5,61.3c-0.7-0.3-1.5-0.5-2.3-0.6c-0.6,0-1.2,0.2-1.1,0.2c0,0,1.9-0.1,3.1,0.5L30.5,61.3z"/>
				<path class="st0" d="M33.7,60.8l0.2-0.1c-0.5,0.2-2.5-1.1-2.5-1.1C31.7,59.8,33.2,61,33.7,60.8z"/>
				<path class="st0" d="M31.3,46.5c0.1,0,0.4,0.2,0.4,0.2l0.2,0c0,0-0.7-0.8-1.3-0.8c-0.2,0-1,0.4-1,0.4
					C30.2,46.2,30.8,46.2,31.3,46.5z"/>
				<path class="st0" d="M47.1,44.9c0.2-0.1-1.5-2-2.6-2.4l-0.1,0c1.8,1.2,2.6,2.4,2.5,2.4L47.1,44.9z"/>
				<path class="st0" d="M49,47.4c0.2-0.7-0.1-1.5-0.6-2.1c0,0,0.7,1.2,0.4,2.2L49,47.4z"/>
				<path class="st0" d="M48.8,44.6c-0.1-0.1-0.4-0.4-0.6-0.4l-0.1,0.1c0,0,0.6,0.7,0.7,1C48.8,45.3,49,45,48.8,44.6z"/>
				<path class="st0" d="M26.4,14.4c-1.8,0.7-3.3,1.4-4.3,1.9c-2.1,1-4.9,3.3-6.1,4.2c1.6-1.2,7.6-5.4,13.8-6.9l0.1,0
					c1.2-0.4,1.3-0.7,1.3-0.8c0,0-2.2,0.7-2.4,0.8C27.9,13.8,27.2,14.1,26.4,14.4"/>
				<polyline class="st0" points="29.4,14.1 29.3,14.1 29.4,14.1 				"/>
				<path class="st0" d="M16.6,19.2L16.6,19.2L16.6,19.2L16.6,19.2c5.5-4.2,12.1-6.9,14.1-7.4c-2.7,0.7-5.4,1.9-7.9,3.2
					C21.6,15.7,16.8,18.7,16.6,19.2z M28.5,12.5c-0.6,0.2-1.1,0.4-1.7,0.6c-0.6,0.2-1.2,0.5-1.8,0.8C26.2,13.4,27.4,12.9,28.5,12.5z
					"/>
				<polygon class="st0" points="19.8,16.7 19.9,16.7 20,16.7 				"/>
				<polyline class="st0" points="28.3,18.4 28.3,18.5 28.3,18.4 				"/>
				<path class="st0" d="M37,33.1c-2-0.3-5.6-0.2-5.7-0.1C33.1,33,36.9,33.1,37,33.1z"/>
				<path class="st0" d="M37.4,32.1L37.4,32.1L37.4,32.1z"/>
				<path class="st0" d="M21.7,32.2c-0.5,0-1,0-1.5,0.1L20,32.5l0,0l0,0l0,0l0,0c0,0,0,0,0,0h0h0c0.2,0,0.4-0.1,0.6-0.1l2.9,0
					c0.2,0,0.3,0,0.5,0c0.2,0,0.4,0.1,0.6,0.1c0.1,0,0.1,0,0.2,0l0.2-0.1l0,0l0.1,0l0,0l0,0C23.9,32.3,22.8,32.2,21.7,32.2"/>
				<path class="st0" d="M58.8,48.6l-0.2,0.1c-0.1,0.8-0.6,1.5-1.1,2l0.2-0.1C58.2,50.1,58.8,49.4,58.8,48.6"/>
				<polygon class="st0" points="32.7,68 32.9,67.9 32.9,67.9 				"/>
				<path class="st0" d="M63.1,43.7c-0.2,0.2,0.3,0.5,0.6,0.6c0,0-0.5-0.4-0.4-0.5L63.1,43.7"/>
				<polyline class="st0" points="55,17.9 54.9,17.9 55,17.9 				"/>
				<path class="st0" d="M44.2,12.2c0-0.2-0.3-0.1-0.3-0.2c-0.1-0.1,0.4-0.1,0.3-0.2c-0.2-0.2-0.4-0.2-0.6-0.1c-0.1,0-0.2,0-0.3,0
					c-1.4-0.6-1.6-0.7-2-1.2c0-0.2,0-0.3-0.1-0.5C40.9,9.5,40,9.3,40,9.3c0.2,0.2,0.4,0.4,0.6,0.7c0.2,0.2,0.2,0.5,0.3,0.8
					c0.1,0.4,0.8,1.1,0.8,1.1c-0.1-0.2-0.2-0.5-0.3-0.7c0-0.1-0.1-0.2-0.1-0.3c0.7,0.7,1.5,1.5,2.4,1.7c0,0,0-0.1,0-0.1
					c0-0.1,0.1-0.2,0.2-0.1l1.1,0.6C45,12.6,44.1,12.5,44.2,12.2"/>
				<path class="st0" d="M45.8,13.9l0.1-0.1c0.1-0.3,0.2-0.6,0.2-0.9c0-0.6-0.2-1.3-0.6-1.8C45.3,10.6,44,8.9,44,9l0,0
					c0,0.2,0.4,0.5,0.5,0.6c0.4,0.5,0.6,1.1,0.9,1.6c0.2,0.5,0.3,1.1,0.4,1.7c-0.3-0.6-0.8-1.1-1.2-1.7c0-0.1-0.2,0-0.1,0.1
					c0.6,0.8,1,1.4,1.3,2.2v0l0,0.2L45.8,13.9z M45.6,13.7L45.6,13.7L45.6,13.7L45.6,13.7z"/>
				<path class="st0" d="M43.6,13.9c0.1,0,0-0.4,0-0.4l0,0c-0.6-0.2-1.2-0.4-1.7-0.8c-0.1-0.1-0.2-0.2-0.3-0.3l-0.1-0.2l-0.2,0l0,0
					v0c0.5,0.6,1,1.2,1.7,1.6C43.2,13.8,43.5,14,43.6,13.9z M43.6,13.5L43.6,13.5L43.6,13.5L43.6,13.5z"/>
				<path class="st0" d="M42.2,13.8l0.5,0c-0.5-0.3-1.3-0.8-1.6-1.2C41,12.6,41.1,13.1,42.2,13.8z"/>
				<path class="st0" d="M44,13.4L44,13.4c0.1,0,0.2,0,0.3,0c0.1,0,0.2,0.1,0.3,0.1c0.1,0,0.1-0.2,0.1-0.2c0,0-0.4-0.3-0.7-0.3
					c0,0-1-0.2-1.3-0.6h-0.1c0,0.1,0.1,0.2,0.1,0.3C43.1,13.1,43.6,13.3,44,13.4z"/>
				<path class="st0" d="M41.3,9.3l-0.2,0.1c0.2,0.1,0.4,0.2,0.6,0.2c0.1,0,0.1,0,0.2,0l0.2-0.1c-0.1,0-0.1,0-0.2,0
					C41.7,9.5,41.5,9.4,41.3,9.3"/>
				<path class="st0" d="M41.7,9.7l-0.2,0.1c0.4,0.1,1,0.1,1.3-0.2C42.8,9.7,42,9.8,41.7,9.7z"/>
				<path class="st0" d="M42.9,10.4c0,0-0.2,0.3-0.3,0.2l-0.1,0.2c0.3,0.1,0.5-0.1,0.7-0.5L42.9,10.4L42.9,10.4z"/>
				<path class="st0" d="M42.5,11.2L42.5,11.2c0.4,0.1,0.7-0.1,0.9,0.1c0,0,0.2,0,0.1-0.2c-0.4-0.5-0.4-0.2-0.8,0L42.5,11.2z"/>
				<path class="st0" d="M45.5,17.2c0.3,0,0.5,0.3,0.7,0.5l0.1-0.2c-0.1-0.2-0.2-0.6-0.4-0.6C45.7,16.8,45.5,17.2,45.5,17.2z"/>
				<path class="st0" d="M46.1,14.6c0,0.4-0.1,0.8-0.3,1.1l-0.4,0.3c0.7-0.2,1-0.9,1-1.6C46.4,14.5,46.1,14.3,46.1,14.6z"/>
				<path class="st0" d="M46.6,13.9c0.2-0.4,0.4-1,0.4-1.4l-0.2,0.1C46.2,14.3,46.6,13.9,46.6,13.9z"/>
				<path class="st0" d="M35.1,64.1l0.4-0.3c-0.3,0-1.1,0.2-1.4,0.6C34.3,64.3,34.9,64.1,35.1,64.1z"/>
				<path class="st0" d="M36.6,63.6c0.2,0,0.4,0,0.6-0.1c0.1-0.1,0.8-0.6,0.9-0.7L37.7,63c-0.1,0.2-0.6,0.4-0.7,0.4L36.6,63.6z"/>
				<path class="st0" d="M37.7,63.7c0.2,0,0.3,0,0.5,0c0.1,0,0.6-0.3,0.7-0.4c0,0.1-0.5,0.3-0.7,0.2L37.7,63.7z"/>
				<path class="st0" d="M12.7,27.1c3.4-2.5,7-4.7,11-6.2c0.9-0.3,1.7-0.7,2.5-1.1c0.5-0.3,2.2-1.3,2.5-1.6
					c-0.1,0.1-3.1,1.7-5.5,2.6c-2.8,1-5.3,2.7-7.8,4.3c-1.2,0.8-2.5,1.6-3.6,2.5C12.1,27.4,12.4,27.3,12.7,27.1z"/>
				<path class="st0" d="M28,18c-4,1.5-7.9,3.5-11.6,5.9c-1.4,0.9-2.8,1.9-4,2.9c0.3-0.2,0.6-0.3,0.9-0.5c2.6-2.1,5.4-3.8,8.3-5.3
					c1.7-0.9,3.5-1.6,5.2-2.3c0.1,0,0.2-0.1,0.3-0.1C27.4,18.4,27.7,18.1,28,18z"/>
				<path class="st0" d="M25.5,23.7c-0.1,0.1-0.8,0.5-1.1,0.6c-0.2,0.1-1.3,0.6-2,0.9c-1.1,0.4-2.1,0.9-3.1,1.5c-1.7,0.9-3.4,2-5,3
					c-0.8,0.5-1.6,1-2.4,1.6c-0.1,0,0.5-0.3,0.9-0.5c0.4-0.2,0.7-0.4,1.1-0.7c0.5-0.4,3.4-2.2,3.8-2.4c1-0.5,2-0.9,3-1.3
					C22.5,25.8,25.3,23.9,25.5,23.7z"/>
				<path class="st0" d="M23.5,23.8c-1.4,0.5-2.7,1.1-4.1,1.8c-1.5,0.7-2.9,1.6-4.3,2.4c-1.6,0.9-3.1,1.9-4.5,3.1
					c0.1-0.1,1.8-1.1,2.1-1.3c0.5-0.5,1.1-0.9,1.7-1.3c0.3-0.2,2.6-1.5,3.7-2c1.1-0.5,2.1-1,3.3-1.4C21.7,24.9,23.4,23.8,23.5,23.8z
					"/>
				<path class="st0" d="M11.3,57.6L11.3,57.6c-0.1-0.6-0.8-1.6-0.8-1.7L10,55.2l-0.3,0.2c-0.2,0.1-0.5,0.2-0.7,0.2
					C8.5,55.8,6.6,56,6.1,56c-0.3,0-0.5,0-0.7,0c-0.1-0.1-0.2-0.2-0.4-0.2C5,55.8,5,55.9,5,56c0,0,0.4,0.5,0.5,1
					c0,0,0.7-0.5,1.2-0.2c0.1,0.2,0.7,1.3,0.7,1.6c-0.1,0.3-0.7,0.7-0.7,0.7l0,0.1l0,0l0.5,0.9c0,0,0.2,0.3,0.3-0.1
					c0-0.3,0.3-0.9,0.5-1.1c0.2-0.2,0.4-0.4,0.5-0.6l0.2,0.2C9,58.8,9.2,58.9,9,59.4c-0.2,0.5-0.8,1.2-0.9,1.6
					c-0.1,0.2,0.4,0.8,0.4,0.8c0.1,0.1,0.1,0,0.2-0.1c0.3-0.8,1-1.6,0.9-2.1l0-0.5c0.3,0.1,0.8,0,1-0.1
					C11.2,58.7,11.4,58.1,11.3,57.6z M7.4,56.7l0.4-0.1c0.4-0.1,1.1-0.1,1.1,0c-0.1,0.2-0.4,0.7-0.5,0.7c-0.2,0.1-0.3,0.3-0.5,0.5
					L7.4,56.7z M9.9,58.2c-0.3,0.2-0.8,0-1-0.3c0.3-0.3,1.2-1.7,1.3-1.5c0.1,0.1,0.4,0.4,0.4,0.7C10.5,57.5,10.1,58.1,9.9,58.2z"/>
				<path class="st0" d="M12.3,61l0.4,0.4c0,0,0.3-0.3,0.5-0.5c0-0.1,0.4-0.8-0.4-1.2c0,0-0.7-0.8-1.9,0.2c0,0-2,1.3-1.7,2.8
					c0,0,0.5,1.4,1.7,1.2c0,0,0.5,0,0.7-0.4c0,0,0.1-0.2,0.3,0.1c0,0,0.3,0.2,0,0.4c0,0-0.3,0.5-0.7,0.6c0,0-0.3,0-0.1,0.4l0.6,0.6
					c0,0,0.3,0.3,0.4-0.1c0,0,0.9-1.2,2.3-2.4c0,0,0.5-0.6,0.5-0.1c0,0,0.1,0.8,0.4,0.4c0,0,0.2-0.3,0.4-0.5c0,0,0.3,0,0-0.4
					L14.1,61c0,0-0.1-0.4-0.5,0l-0.2,0.3c0,0-0.3,0.3,0.1,0.3c0,0,0.4,0,0.5,0.5l-1.4,1.4c0,0-0.1,0.3-0.3,0l-0.7-0.9
					c0,0-0.3-0.4-0.4,0.1c0,0-0.1,0.6-0.8,0.7c0,0-0.4,0.1-0.6-0.5c0,0-0.1-0.3,0.4-0.9l1.6-1.6c0,0,0.3-0.4,0.6-0.1
					C12.5,60.2,12.8,60.5,12.3,61z"/>
				<path class="st0" d="M13,66.3c0,0-0.4,0.3-0.1,0.6l0.4,0.4c0,0,0.2,0.3,0.3-0.1c0,0,0-0.3,0.3-0.6l1.2-1.2c0,0,0.1-0.2,0.1,0.1
					l-0.6,2.5c0,0-0.1,0.7,0.3,0.5l2.3-1.6c0,0,0.3-0.3,0.2,0.2l-1,2.4c0,0-0.2,0.3,0.1,0.4l0.3,0.2c0,0,0.3,0.3,0.4-0.1l1.5-4.1
					c0,0,0.3-0.6-0.2-0.8c0,0-0.3-0.1-0.7,0.2l-1.6,1.2c0,0-0.3,0-0.2-0.2c0,0,0.3-1.2,0.4-1.4c0,0,0.4-1.2,0.1-1.4
					c0,0-0.3-0.4-0.6-0.1L13,66.3z"/>
				<path class="st0" d="M19.9,66.3c0,0-0.4-0.4-0.5,0.1l-1.1,4.1c0,0-0.2,0.4,0.1,0.5c0,0,0.3,0.1,0.3,0.2c0,0,0.4,0.1,0.6-0.1
					l3-3.1c0,0,0.3-0.3-0.1-0.4l-0.4-0.2c0,0-0.4-0.3-0.6,0.2c0,0,0,0.3-0.5,0.8l-0.9,0.8c0,0-0.2,0.2-0.1-0.1l0.6-2
					C20.3,67.1,20.6,66.5,19.9,66.3z"/>
				<path class="st0" d="M23.2,68c0,0-0.4-0.3-0.6,0.2l-1.8,3.6c0,0-0.5,0.4-0.1,0.5l0.3,0.2c0,0,0.3,0.2,0.4-0.1l1.7-3.6
					c0,0,0.3-0.5,0.1-0.7C23,67.9,23.2,68,23.2,68z"/>
				<path class="st0" d="M29.4,72.2c0,0,0.4-0.7-0.2-0.7c0,0-0.7-0.2-0.8,0.6c0,0,0,0.4,0.1,0.6l0.2,2.2c0,0,0,0.3,0.3,0.4
					c0,0,0.3,0.1,0.6-0.3l2.1-3.4c0,0,0.3-0.3-0.1-0.4c0,0-0.5-0.3-0.6,0l-1.4,2.2C29.5,73.4,29.3,73.7,29.4,72.2z"/>
				<path class="st0" d="M34,72.3c0,0-0.1,0.4-0.4,0.1c0,0-0.4-0.4-0.6,0.1c0,0-0.3,0.2,0.8,1.2c0,0,1,1-0.2,2.1
					c0,0-0.7,0.8-2.4-0.3c0,0-0.4-0.1-0.2-0.5l0.3-0.4c0,0,0.2-0.5,0.5,0c0,0,0.1,0.7,1,0.7c0,0,1-0.2-0.1-1.6c0,0-1-1.6,0.3-2
					c0,0,0.7-0.1,1.1,0.2C33.9,71.8,34.1,71.9,34,72.3z"/>
				<path class="st0" d="M28.7,70.2c0,0-0.3,0-0.9-0.3c0,0-0.7-0.4-0.9-0.1c0,0-0.4,0.7,0,0.7c0,0,0.3-0.2,0.5-0.1
					c0,0,0.2-0.1,0.1,0.3l-1,2.9c0,0-0.1,0.5-0.6,0c0,0-0.2-0.2-0.3-0.9c0,0,0-0.7-0.2-1c0,0,0.5-0.1,0.8-0.6c0,0,0.4-0.6,0.2-1.4
					c0,0-0.2-0.5-0.7-0.7l-1.2-0.5c0,0-0.5-0.3-0.4,0.3c0,0,0,0.4-0.2,0.8l-1.4,3c0,0-0.3,0.4,0.1,0.5l0.5,0.3c0,0,0.3,0.3,0.4-0.1
					c0,0,0.1-0.7,0.3-1.1l0.3-0.7c0,0,0.7,0.1,0.7,1.3c0,0-0.1,1.5,0.9,1.7c0,0,1.1,0.4,1.5-0.6l1-2.8c0,0,0-0.4,0.2-0.3
					c0,0,0.1-0.1,0.3,0.1c0,0,0.4,0.2,0.4-0.2C29,70.7,29.1,70.3,28.7,70.2z M24.5,71.1c-0.4,0-0.2-0.4-0.2-0.4l0.6-1.2
					c0.1-0.3,0.3-0.2,0.3-0.2l0.3,0.2c0.3,0.4-0.2,1.3-0.2,1.3C25.1,71.3,24.5,71.1,24.5,71.1z"/>
				<path class="st0" d="M38.2,75.6c0,0-0.5,0.1-1-1.1c0,0-0.2-0.4-0.5-0.6c0,0,0.7-0.2,0.7-1.2c0,0,0.1-0.8-0.9-1l-1.3-0.1
					l-0.4,0.1l0.1,0.1l-0.2,3.4c0,0,0,0.3,0,0.4c0,0-0.3,0.4,0.2,0.4l0.5,0c0,0,0.4,0.1,0.4-0.3l0-1.6c0,0,0.5-0.4,0.8,0.7
					c0,0,0.6,1.7,1.8,1.1C38.3,75.9,38.7,75.7,38.2,75.6z M36.5,72.8c0,0.5-0.4,0.7-0.4,0.7c-0.4,0.2-0.4-0.2-0.4-0.2l0-1.2
					c0-0.3,0.4-0.2,0.4-0.2C36.6,72,36.5,72.8,36.5,72.8z"/>
				<path class="st0" d="M39.1,72c0,0-1.7-0.2-1.5,1.8c0.2,2,2,1.6,2,1.6s1-0.4,0.9-1.9C40.5,72.1,39.1,72,39.1,72z M39,74.8
					c0,0-0.6,0.2-0.6-1.2c-0.1-1.4,0.6-1.2,0.6-1.2s0.7,0.1,0.7,1.1C39.7,75,39,74.8,39,74.8z"/>
				<path class="st0" d="M44.1,73.5c0,0-0.1-0.7-0.8-0.9c0,0-0.2,0-0.1-0.3c0,0,0.7-1.4-0.7-1.9c0,0-1.4,0.3-1.7,0.1
					c0,0-0.1,0.2-0.3,0.2c0,0-0.4,0.1-0.1,0.5c0,0,0.2,0.1,0.4,1.9c0,0,0.2,1.4,0.2,1.9c0,0-0.3,0.7,0.2,0.6c0,0,0.2-0.1,0.9-0.2
					c0,0,1.1-0.3,1.2-0.4C43.5,75.1,44.3,74.9,44.1,73.5z M41.7,72.5l-0.1-0.7c-0.2-0.9,0.3-0.8,0.3-0.8c0.7-0.2,0.7,0.8,0.7,0.8
					c0.1,0.9-0.5,0.9-0.5,0.9C41.6,72.9,41.7,72.5,41.7,72.5z M43.2,74.1c0,0.9-0.9,0.9-0.9,0.9C42,75.1,42,74.8,42,74.8
					c0-0.4-0.2-1.3-0.2-1.3c-0.1-0.6,0.9-0.5,0.9-0.5S43.3,73.1,43.2,74.1z"/>
				<path class="st0" d="M49.4,72.6c0,0-0.3-0.1-0.8-0.8c0,0-0.5-0.7-0.9-0.7c0,0,0.7-0.7,0.5-1.5c0,0-0.1-1.1-1.4-0.8l-0.9,0.3
					c0,0-0.3,0-0.1,0.5c0,0,0.3,2.7,0.2,3.4c0,0-0.6-0.9-0.8-1.2c0,0-0.8-1.3-0.8-1.6c0,0,0.2-0.7-0.2-0.4c0,0-0.5,0.3-0.7,0.3
					c0,0-0.4-0.1,0.2,0.5c0,0,0.3,0.1,0.9,1.2l1.3,2.2c0,0,0.3,0.5,0.6,0.2c0,0,0.3,0,0.4-0.5l0-2.1c0,0,0-0.6,0.6-0.1
					c0,0,0.1,0.1,0.8,0.9c0,0,0.6,0.9,1.3,0.5C49.5,73.1,49.9,72.9,49.4,72.6z M47.1,71c-0.3,0.3-0.3-0.1-0.3-0.1l-0.1-1.2
					c-0.1-0.5,0.4-0.4,0.4-0.4c0.4,0,0.5,0.8,0.5,0.8C47.6,70.8,47.1,71,47.1,71z"/>
				<path class="st0" d="M49.3,68.5c0,0-0.1-0.3-0.5,0l-0.2,0.4c0,0-0.1,0.4-0.4,0l-0.2-0.4c0,0-0.2-0.3,0.3-0.4
					c0,0,1.4-0.7,1.6-0.8c0,0,0.2-0.3,0.5,0c0,0,0.4,0.3,0,0.5c0,0-0.7-0.1-0.5,0.3l1.5,3.1c0,0,0.6,0.4,0.3,0.6l-1.3,0.7
					c0,0-0.4,0.3-0.5-0.1c0,0-0.2-0.5,0.3-0.6l0.4-0.1c0,0,0.2,0,0-0.5l-0.4-0.8c0,0,0-0.3-0.3,0c0,0-0.5,0.5-0.7,0.2
					c0,0-0.4-0.3,0.1-0.6l0.5-0.3c0,0,0.2,0,0-0.4C49.7,69.3,49.2,68.6,49.3,68.5z"/>
				<path class="st0" d="M53.1,66.8c0,0,0,0.6,0.4,0.2c0,0,0.3-0.4,0-0.8c0,0-0.3-0.8-1.6-0.2c-1,0.5-0.6,1.7-0.6,1.7
					s0.1,0.9,1.8,0.9c0,0,1.3-0.1,0.8,1.1c0,0-0.3,0.5-1,0.2c0,0-0.8-0.4-0.7,0.5c0,0,0.1,0.5,1.3,0.5c0,0,1.7-0.2,1.4-1.9
					c0,0-0.1-1.1-2-1.2c0,0-1.2,0-0.7-0.8C52.1,66.9,52.9,66.1,53.1,66.8z"/>
				<path class="st0" d="M54.5,65.2c0,0-0.1-0.2-0.3,0c0,0-0.2,0.3-0.3,0.4c0,0-0.2,0.4-0.4,0.1l-0.2-0.4c0,0-0.2-0.2,0.2-0.5
					l1.5-1.2c0,0,0.2-0.3,0.5,0.1c0,0,0.4,0.3,0,0.5c0,0-0.4,0.1-0.5,0.3c0,0-0.2,0.1,0,0.3l1.7,2.4c0,0,0.2,0.3,0.5,0.4
					c0.3,0.1,0.1,0.3,0,0.5L57,68.4c0,0-0.4,0.4-0.6-0.1c0,0-0.1-0.6-0.4-0.8L54.5,65.2z"/>
				<path class="st0" d="M56.6,64.6c0,0-0.4-0.2-0.5,0.1c0,0-0.5,0.4,0.2,0.7l2.4,1.1c0,0,0.2,0.2,0.4,0l0.3-0.2c0,0,0.2-0.1,0-0.6
					L58,62.2c0,0-0.2-0.3-0.2-0.9c0,0,0-0.6-0.4-0.1L57,61.7c0,0-0.4,0.5,0,0.6c0,0,0.3-0.1,0.4,0.5l1.1,2.6c0,0,0.1,0.2-0.1,0.1
					L56.6,64.6z"/>
				<path class="st0" d="M62.1,61.1c0,0-1.4-1.6-2.4-1.6c0,0-0.8-0.1-1.3,0.7c0,0-0.2,0.4-0.3,0.4c0,0-0.4,0.4,0.2,0.6
					c0,0,0.6,0.2,2.3,2.3c0,0,0.1,0,0.2,0.6c0,0,0.1,0.8,0.6,0.2l1-1.3C62.4,62.9,62.9,62,62.1,61.1z M61.4,63.1l-2.2-2.2
					c-0.6-0.3-0.2-0.7-0.2-0.7c0.4-0.4,1.1,0.2,1.1,0.2c0.7,0.5,1.5,1.5,1.5,1.5C62,62.5,61.4,63.1,61.4,63.1z"/>
				<path class="st0" d="M59.9,58.1c0,0-0.3,0.4,0.2,0.6l3.1,2.4c0,0,0.3,0.4,0.5,0.1l0.2-0.3c0,0,0.3-0.3-0.1-0.5
					c0,0-0.3,0-0.9-0.5c0,0-1.8-1.5-2.1-1.6C60.8,58.2,60.3,57.4,59.9,58.1z"/>
				<path class="st0" d="M63.6,53.4c0,0-0.8-0.4-0.9,0c0,0-0.3,0.3,0.2,0.7l0.7,0.7c0,0,0.3,0.3-0.2,0.2l-0.9-0.3
					c0,0-0.4-0.3-0.6,0.2c0,0-0.3,0.3,0.3,0.8c0,0,1.9,1.9,2,2.2c0,0-0.6-0.2-2.7-1.1c0,0-0.5-0.6-0.7,0.1c0,0-0.3,0.4,0.3,0.6
					l3.6,1.3c0,0,0.5,0.1,0.6-0.2c0,0,0.3-0.3,0-0.7l-2-2.3c0,0-0.2-0.2,0.1-0.2l1.8,0.5c0,0,0.5,0,0.2-0.3l-1.5-1.6
					c0,0,2.8,0.5,2.8,1c0,0,0.3,0.4,0.4-0.1l0.2-0.3c0,0,0.3-0.5-0.3-0.5"/>
				<path class="st0" d="M30.6,6.4c0,0.4-0.3,0.7-0.7,0.7c-0.4,0-0.7-0.3-0.7-0.7c0-0.4,0.3-0.7,0.7-0.7C30.3,5.7,30.6,6,30.6,6.4z"
					/>
				<path class="st0" d="M41.5,6.1c0,0.4-0.3,0.7-0.7,0.7c-0.4,0-0.7-0.3-0.7-0.7c0-0.4,0.3-0.7,0.7-0.7C41.1,5.4,41.5,5.6,41.5,6.1
					z"/>
				<path class="st0" d="M64.6,22.9c0,0.4-0.3,0.7-0.7,0.7c-0.4,0-0.7-0.3-0.7-0.7c0-0.4,0.3-0.7,0.7-0.7
					C64.3,22.3,64.6,22.5,64.6,22.9z"/>
				<path class="st0" d="M70.3,44.9L70.1,45c0.3,2-0.3,4-1.2,5.7c-0.2,0.4-0.5,0.9-0.8,1.3l-0.1,0.1l0.1,0.3c0,0.1,0,0.2,0,0.3
					c-0.1,0.3-0.2,0.6-0.3,0.8l0.2-0.1c0.1-0.2,0.2-0.5,0.3-0.7c0.1-0.2,0.1-0.4,0-0.6l0-0.1c0.3-0.4,0.5-0.9,0.8-1.3
					C70,48.9,70.6,46.9,70.3,44.9"/>
				<polyline class="st0" points="64,46.9 64,46.9 64,46.9 				"/>
				<path class="st0" d="M63.3,51.5c-0.1-0.2-0.3-0.1-0.2,0.1c0,1,0.7,1.2,0.8,1.2c0.2,0.2,0.8,0,1.1,0.4l0.1-0.1l-0.5-0.6l0,0.3
					c0.1,0.1-0.3-0.3-0.6-0.3c-0.1,0-0.3,0-0.4-0.1L63.3,51.5"/>
				<path class="st0" d="M64,51c0.1,0.1,0.2,0.2,0.2,0.3c0,0,0.1,0.1,0.1,0.2c0-0.1-0.1-0.2-0.1-0.3C64.1,51.1,64,51.1,64,51
					 M63.8,49.7C63.8,49.7,63.8,49.7,63.8,49.7C63.8,49.7,63.8,49.7,63.8,49.7 M63.8,49.7C63.8,49.7,63.8,49.7,63.8,49.7
					C63.8,49.7,63.8,49.7,63.8,49.7"/>
				<path class="st0" d="M64.3,51.5c0.1,0.3,0.1,0.6,0,0.8l0,0C64.4,52.1,64.4,51.8,64.3,51.5 M63.8,49.7c-0.1,0.3-0.1,0.6-0.2,1
					c0,0,0.2,0.2,0.4,0.3c0,0,0-0.1-0.1-0.1C63.7,50.5,63.7,50.1,63.8,49.7 M63.8,49.7C63.8,49.7,63.8,49.7,63.8,49.7
					C63.8,49.7,63.8,49.7,63.8,49.7 M64,49.5l-0.2,0.1c0,0,0,0,0,0.1c0,0,0,0,0-0.1L64,49.5L64,49.5"/>
				<path class="st0" d="M64,49.5l-0.2,0.1c0,0,0,0,0,0.1c0,0,0,0,0,0c0,0,0,0,0,0.1c0,0,0,0,0,0c-0.1,0.4-0.1,0.8,0.1,1.2
					c0,0,0,0.1,0.1,0.1c0.1,0.1,0.2,0.1,0.2,0.2c0.1,0.1,0.1,0.2,0.1,0.3c0.1,0.3,0.1,0.6,0,0.8l0.2-0.1c0-0.1,0.1-0.2,0.1-0.3
					c0-0.4-0.2-0.7-0.4-1c-0.2-0.2-0.2-0.5-0.2-0.8C63.9,49.9,64,49.6,64,49.5"/>
				<path class="st0" d="M65.1,50.5l-0.2,0.1c-0.1,0.3-0.1,0.5-0.2,0.8l0.2-0.1C64.9,51.1,65,50.8,65.1,50.5"/>
				<path class="st0" d="M65.2,49.4c-0.1-0.8,0.4-1.8,0.7-2.4c0,0.1-0.8,1.1-0.9,1.8c0,0.2,0,0.6,0,0.8L65.2,49.4"/>
				<path class="st0" d="M64.4,47.7C64.4,47.7,64.4,47.7,64.4,47.7L64.4,47.7C64.4,47.7,64.4,47.7,64.4,47.7 M65.4,46.3l-0.2,0.1
					c-0.4,0.3-0.8,1.2-0.8,1.3C64.7,47.2,65,46.6,65.4,46.3"/>
				<path class="st0" d="M65.2,49.7L65,49.9c-0.1,0.1-0.3,0.3-0.3,0.5l0.1-0.1l0.1-0.1C64.9,50,65,49.9,65.2,49.7"/>
				<path class="st0" d="M7.2,48.2c0.1,0.6,0.4,1.4-0.5,1.9c0,0,0.2,0.1,0.1,0.3c0,0,0,0.2,0.3,0.3c0,0,0-0.5,0.2-0.6
					c0.7-0.5,0.2-1.8,0.1-2C7.2,48,7.2,48.2,7.2,48.2z"/>
				<path class="st0" d="M10.6,50c-0.1,0-0.6-0.2-0.6,0.4l0.4-0.1l0.2-0.1L10.6,50z"/>
				<path class="st0" d="M9.6,51.3l0.2,0.1c0,0,0-0.5,0-0.6l-0.1,0l-0.1,0.1C9.6,50.9,9.5,51.2,9.6,51.3z"/>
				<path class="st0" d="M8.5,52.3l0.3-0.2c0,0,0.2,0.1,0.3,0.1c0.1,0,0.4-0.4,0.5-0.6l-0.2,0.1C9.4,51.7,8.5,51.6,8.5,52.3z"/>
				<path class="st0" d="M11.5,49.2c-0.1,0-0.3,0-0.4,0c-0.1,0.1-0.3,0.2-0.4,0.4c0.1,0,0.5-0.2,0.3-0.1
					C11.4,49.4,11.4,49.2,11.5,49.2z"/>
				<path class="st0" d="M11.2,47.9c-0.1,0-0.1-0.1-0.3,0c-0.2,0.1-0.1,0.2-0.2,0.2c0.2,0,0.3,0,0.4-0.1L11.2,47.9z"/>
				<path class="st0" d="M9.5,46.4c-0.2,0.3-0.8,0.1-0.9,0.1c-0.2,0.1-0.4,0.4-0.5,0.7l0.2,0c0-0.1,0.2-0.5,0.4-0.4
					c0.9,0.1,1-0.3,1-0.5L9.5,46.4z"/>
				<path class="st0" d="M11.3,45.6c0,0.1,0,0.3-0.1,0.4l0.1-0.1l0.1-0.1c0-0.1,0-0.3,0.1-0.4l-0.1,0.1L11.3,45.6z"/>
				<path class="st0" d="M11.7,46.8c0.1,0.2-0.1,0.3-0.2,0.4l0.2-0.1c0.1-0.1,0.3-0.3,0.2-0.4L11.7,46.8z"/>
				<path class="st0" d="M71.4,39.3l-0.2,0c0,0.2,0,0.3,0,0.5c0,20.3-15.5,36.8-34.9,37c-0.2,0-0.3,0-0.5,0
					c-19.3,0-35.1-16.3-35.3-36.6c0-0.2,0-0.3,0-0.5C0.5,19.5,16,3,35.3,2.7c0.2,0,0.3,0,0.5,0c19.3,0,35.1,16.3,35.4,36.6
					L71.4,39.3h0.2C71.4,18.7,55.4,2.2,35.8,2.2c-0.2,0-0.3,0-0.5,0C15.7,2.5,0,19.3,0,39.8c0,0.2,0,0.3,0,0.5
					c0.3,20.6,16.3,37.1,35.8,37.1c0.2,0,0.3,0,0.5,0c19.6-0.3,35.3-17,35.3-37.5c0-0.2,0-0.3,0-0.5L71.4,39.3"/>
				<path class="st0" d="M4.5,50.5L4.5,50.5L4.5,50.5z"/>
				<path class="st0" d="M71.4,43.6c-0.3,0.7-1.4,1.3-2,1.5c-0.6,0.2-1.1,0.4-1.7,0.5c-1.3,0.2-2.3,0.5-3.4,1.4c0,0-0.1,0-0.2,0
					c0.2-0.8,0.3-1.6,0.5-2.5c0.5-3.3,0.4-6.7-0.2-9.9c0,0-1.2-5.9-2.8-8.7c-2.5-4.4-5.1-8.4-9.8-11.5c-0.2-0.1,6.9,5.5,10.4,13.6
					c-0.1-0.1-1.1-1-2-0.3c-0.1,0.1-0.4,0.9,0.1,1.3l0.2,0l0,0c0,0.2,0,0.3,0.1,0.4l0,0c-0.4,0.6-0.8,1.3-1,2.1
					c-0.1,0.5-0.1,1,0.2,1.3c0.4,0.4,1.6,0.5,1.6,0.5c0,0,0.5,5.6,0.5,7.8l-2.3,2.1c-0.1-0.2-0.1-1.3-0.1-1.8c0-2.8-0.2-5.7-0.9-8.4
					c-0.3-1.1-0.7-2.3-1.3-3.3c0,0,0.9,2.5,1.2,3.7c0.7,2.7,0.8,5.5,0.8,8.4c0,0.5,0.1,1.1,0.1,1.7c0,0.1,0,0.2,0.1,0.1
					c0.1-0.1,2.5-2.2,2.5-2.2c0.1,0.3,0.2,0.5,0.5,0.6c0.2,0,0.5,0,0.7-0.1c0.4-0.1,0.8-0.2,1.2,0.1c0,0.1,0,0.2,0,0.3
					c-0.3-0.1-0.8,0.2-0.9,0.2c0.4,0.3,0.7-0.1,0.9,0c0,0.2,0,0.4-0.1,0.5c-0.1-0.1-0.3-0.3-0.3-0.3s0.2,0.3,0.3,0.5
					c0,0.2-0.1,0.4-0.1,0.6c0,0-0.5-0.2-0.6-0.6l-0.2,0c-0.1,0.2,0.4,0.7,0.7,0.7c-0.1,0.4-0.1,0.6-0.1,0.9
					c-0.4,0.1-0.9,0.3-1.1,0.1c0.1,0,0.5-0.3,0.4-0.3c-0.3,0-0.7-0.3-0.7-0.3c0,0.1,0.1,0.3,0.1,0.4c-0.2,0-0.8-0.1-0.9-0.1
					c-0.1,0-0.4,0.1-0.5,0.2c-0.4,0.5-1.7,1.8-1.8,1.9c-0.1-0.1-0.1-0.3,0-0.4c0.4-1.2-0.1-1.8-0.1-1.8c0.1,0.7-0.2,1.3-0.6,2.9
					c-0.1,0.4,1.1-0.3,1.4-0.7c1.2-1.4,1.6-1.1,1.6-1.2c-0.1,1.5-0.5,3.1-0.8,4.6c-0.2,0.7-0.3,1.5-0.6,2.2
					c-0.1,0.2-0.2,0.4-0.2,0.7c0,0.6,0.7,0.4,1.2,0.2c-1.6,3.4-3.9,6.5-6.7,9c-0.6,0.6-1.3,1.1-1.9,1.7c-0.7-0.4,0-2.6,0.3-3.2
					c0.5-1.4,1.3-2.8,1.9-4.2c0.3-0.7,0.6-1.4,0.9-2.1c0.8-1.6,0.8-2,0.8-2c0.2,0,0.5-0.1,0.7-0.3c0,0.2-0.9,2.4-1.4,3.4
					c-0.4,0.9-0.8,1.9-1.3,2.8c-0.3,0.7-0.7,1.3-1.1,2c-0.5,0.9-0.8,2-1,3.1c0-0.1,0.2,0.2,0.2-0.1c0.2-1.8,1.3-3.2,2.1-4.8
					c0.9-1.9,1.8-3.9,2.4-5.9c0.1-0.4,0.2-0.8,0.3-1.2c0-0.2,0.1-0.3,0.3-0.4c0.2-0.2,0.4-0.5,0.4-0.9l-0.2,0.1
					c0,0.3-0.1,0.5-0.3,0.8c-0.1,0.1-0.3,0.3-0.3,0.4c0,0.2,0,0.3,0,0.5c0,0-0.6,0.4-0.9,0.3c-0.1-0.1-0.2-0.2-0.3-0.3
					c-0.4-0.2-1-0.1-1.4,0.2c-0.6,0.4-1.6,1.2-1.7,0.5c0.2,0.1,0.6-0.2,1-0.5c0.8-0.7,2.4-0.9,2.4-0.9c0-0.1,0.5-0.3,0.5-0.3
					c-0.5-0.1-2,0.3-3.4,1.4c0.5-0.5,0.7-0.8,0.9-1.3c-0.1,0,1.5-0.9,2.2-1.6c0.4-0.4,0.3,0,0.6-0.5c0.7-1.5,1.1-3.8,1.3-5.5
					c0.2-2.2,0.2-4.5-0.1-6.7c-0.4-2.4-1-4.9-2-7.2c0.1,0,0.2-0.1,0.3-0.1c0.1-0.1,0.2-0.4-0.1-0.3C55.1,29.9,52.6,30,52,30
					c-0.4,0-0.7-0.1-1-0.4c-0.1-0.1-0.8-1.6-0.7-1.9c3.4,0.4,4.8-0.9,5.1-1.6c0.1-0.4-1-2.5-1.2-2.8h0c-1.7-5.3,0.6-5.4,0.7-5.5
					c-0.2,0-2.8-0.3-1.3,4.6c-1.3-2-2.8-3.4-2.8-3.4c0.2,0.4,0.2,0.4,0.3,0.7c-0.7-0.3-2.3-0.9-2.4-0.9c-0.1-0.2-0.2-0.4-0.3-0.6
					c1.6,0.8,2,0.2,2.1,0.2c-0.4,0.1-2-0.5-2.4-0.8c-0.2-0.5-0.6-1.6-0.7-1.5c0.3,0.9,0.5,1.9,0.9,2.7c-0.1,0-0.2,0-0.3-0.1
					c-0.2-0.1-0.7-0.8-0.9-0.9c-0.1,0,0.1,0.5,0,0.4c-0.1,0-0.7-0.9-0.8-0.9c-0.1-0.1,0,0.5-0.1,0.5c-0.5-0.2-1.5-0.6-1.5-1.3
					c0.1,0,0.3-0.6,0.4-0.9c0.4-0.2,0.7-1.2,0.7-1.4l-0.1,0c0,0-0.2,0.4-0.4,0.5c0-0.2,0-0.4-0.1-0.5c-0.2-0.2-1.3-0.6-1.4-0.6
					l-0.3,0c0,0,0.7,0.3,1,0.4c0.6,0.3,0.3,1.3,0.3,1.3c-0.2-0.2-0.4-0.5-0.6-0.6c-0.2-0.1-0.3-0.3-0.5-0.3c-0.1,0-0.1,0.1-0.1,0.1
					c0.2,0.2,0.6,0.5,0.6,0.6c0.2,0.2,0.4,0.5,0.5,0.7c0,0,0,0.3-0.1,0.4c-0.2-0.3-0.4-0.6-0.6-0.9c-0.1-0.2-0.7-0.7-1.6-1.1
					c-1-0.4-2.1-1.7-2.4-2.2c0.5,0.8,1.1,1.8,1.9,2.2c0.5,0.2,1.2,0.6,1.2,0.6c-0.2,0.8-1,1.3-1.3,1.2c0.4,0.1,0.8-0.1,1.1-0.3
					c0.2-0.2,0.4-0.4,0.5-0.7c0.5,0.4,1,1.4,1,1.4c0,0.3,0.3,0.7,0.4,0.9c0.7,0.7,1.7,1,2.6,1.3c0.7,0.2,3.2,1,3.7,1.3
					c0,0.1,1.9,2.6,2.6,4c0.2,0.4,0.9,2.3,0.8,2.3c-1.2,1.2-4.3,1.1-4.3,1.1S50.2,26.9,50,27c0,0-0.6-0.9-0.7-0.8
					c0,0,0.6,1.2,0.5,2.4c0,0,0.1,0.7,0.2,0.4c0,0,0-0.7,0.3-0.3c0.1,0.2,0.3,0.7,0.3,0.8c0.1,0.3,0.7,0.7,0.7,0.7
					c0.2,0.9,0.5,1.7,1,2.5c0.1,0.4,1,2.2,1.3,2.8c0.2,0.6,0.3,1.2,0.4,1.8c0.2,1,0.7,6.1,0.7,6.1c0,1.3-0.2,2.7-0.5,4
					c-0.2,0.6-0.9,2.3-3.1,2.8c-0.3,0.1-0.7,0-1.1,0.1c0.7-0.5,1.3-1.2,1.5-2c0,0.1-1.3,1.8-2.3,2c0.4-0.3,0.8-0.8,1.4-1.7
					c0.2-0.3,0.3-0.6,0.5-0.9c0.3-0.5,0.1-1.5,0.1-1.5c0.2,0.3,0.3,0.7,0.4,1c0,0,0.2,0.2,0.2,0c0-0.6-0.4-1.3-0.8-1.7
					c-0.3-0.4-0.6-0.8-0.9-1.2c-0.6-0.7-1.5-1.3-2.5-1.4c-0.2,0-1.1-0.7-1.5-0.9c-0.5-0.2-1-0.4-1.5-0.4c-0.1,0-0.2-0.1-0.3-0.2
					c-0.8-0.5-2.2,0-2.2,0C41.6,41,40,40.2,40,40.2c0.1-0.7,0.5-1.3,0.8-2c0.3-0.6,1.1-2,1.2-2.1c0,0-0.6-1.2-0.7-2.1
					c0.6-0.1,1.1-0.3,1.6-0.7c-0.1,0-2.5,1.2-3.6-0.5l-0.3-0.2c-0.1-0.1-0.2-0.2-0.2-0.3c0-0.2,0-0.3,0.1-0.5c0-0.1,0.3-1.7,0.4-2.1
					c0.1-0.8-0.4-1.6-1-2.1c0,0,0.6,0.7,0.8,1.5c-0.9,0.1-1.8,0.8-2.6,1.1c-1.1,0.5-1.7,0.9-2.7,1.2c-0.7,0.2-3.6,1-5.8,0.4
					c0,0-0.7,0.1-1.2-0.4c-0.3-0.3-0.3-0.7-0.3-1c0-0.5,0.7-2.3,1-3c1-2.2,2.5-4.3,4.1-6.1c0.3-0.3,0.8-1.2,0.9-1.4
					c0.6-0.6,1.7-1.2,1.7-1.2c0.9-0.6,1.4-0.7,2.6-0.9c0,0,0.1,0.7,0.5,0.7c1.3,0.1,2.2,0.5,2.5,0.7h0c0.4,0.5,0.6,2.3,0.6,2.6
					c0,0.1-0.2,0.5-0.5,0c0.1-0.2-0.1-1.5-0.7-2.2c-0.1-0.1-0.5-0.3-0.9-0.4c0.5,0.2,0.8,0.6,0.9,0.9c0.2,0.4,0.4,0.9,0.5,1.7
					c0,0.1-0.4,0.8-0.7-0.6c-0.1-0.5-0.5-1.1-1-1.2c-0.3,0-1.1-0.3-2.5,0.4c0.4-0.2,2.8-0.9,3.1,0.7c-0.4,0.1-0.8,0.2-1.2,0.2
					c-0.6,0-1.1-0.1-1.7,0c-0.4,0.1-0.9,0.1-1.2,0.8c-0.4,0.9-0.9,1.7-1.2,2.6c-0.1,0.3-0.2,0.6-0.3,0.9c-0.2,0.5-0.9,1.8-1,2
					c-0.3,0.5-0.6,1.1-1,1.6l0.2,0c0.5-0.7,1.2-1.8,1.2-1.8c0.8-0.4,2-1.2,2.6-1.9c1.2-1.5,2.5-2.5,4.1-3.6c-0.1,0,0.3,0.3,0.5,0.3
					l0.2-0.1c0,0,0.7,0.8,0.8-0.2c0.1-0.6-0.3-1.8-0.4-2.1c0.1,0.1,0.5,0.5,0.7,2.3c0,0,0.4,0.2,0.5,0.7c0,0,0.1-0.5-0.3-0.8
					c-0.2-0.1-0.1-0.3-0.1-0.4c0-0.5-0.1-1-0.3-1.4c-0.4-0.7-1.1-1.2-1.8-1.4c-0.3-0.1-0.9-0.2-1.4-0.2c-0.3,0-0.4-0.3-0.5-0.6
					c0-0.2,0.2-0.2,0.2-0.4c0-0.2-0.2-0.5-0.2-0.7h0c0.1,0,0.3,0.1,0.4,0.1c0.1,0,0.3,0.1,0.4,0.1c0,0,0,0,0.1-0.1
					c0.1-0.1-0.3-0.2-0.4-0.3c-0.2-0.1-0.3-0.1-0.5-0.2c-0.2-0.2-0.1-0.5,0-0.7l0.3,0.2c0.4,0.1,0.6-0.2,0.7-0.4
					c-0.5,0.5-0.9,0-0.9,0c0,0-0.1,0-0.3,0.2c-0.5,0.1-0.5-0.5-0.4-0.7c0.2-0.6,0.4-1.2,0.6-1.8c0.1-0.3,0-0.6,0-0.9
					c0-0.7,0.6-2,0.7-2.1c0.1-0.1,0.2-0.2,0.2-0.2c0.1,0,0.4-0.1,0.4-0.2l-0.8,0l-0.2,0.1l0,0c0.1,0,0.2,0,0.3,0.1
					c-0.1,0.1-0.7,1.3-0.8,1.6c0-0.4,0.2-1.4,0.2-1.5c0-0.1-0.1-0.2-0.1-0.3c-0.1-0.2,0.2-0.3,0.3-0.4c0.9-0.6,1.9-1,2.9-1.1
					c2.9-0.4,5,0.7,5.7,1.1c1,0.8,1.5,2,1.6,3.3c-0.3,0.6-0.5,1.4-0.8,2c-0.9,2.1,0.4,2.6,0.4,2.6c-0.5-0.4-0.4-1.8-0.2-2.6
					c0.1-0.6,0.3-1.1,0.6-1.7c0,0-0.1,1.3,0,1.9c0.1,0.8,0,2.1,2.2,2.5c0.3,0.1-0.1-0.8-0.1-0.8c-0.2-0.7-0.7-0.6-0.7-0.6
					c-0.6-0.1-1-0.3-1.1-0.4c-0.1-0.3-0.1-0.5-0.1-0.8c0.2-0.1,1,0.3,1,0.3c0.8,0.4,0.4-0.6,0.4-0.6c0-0.7-0.5-0.5-0.5-0.5
					c-0.4,0-0.8-0.3-0.9-0.4c0-0.3,0-0.6,0-0.9c0.2-0.1,0.6,0.1,0.6,0.1c0.6,0.4,0.4-0.3,0.4-0.3c0-0.4-0.6-0.5-0.6-0.5
					c-0.3,0-0.4-0.2-0.6-0.3c0-0.2-0.1-0.4-0.2-0.6c0.5,0.3,1,0.2,1.3,0.1c0,0,0.7-0.4,1.3-1.8c0.1-0.3,0.7-1.4,0.7-1.6
					c0-0.1,0.5-0.1,0.4-0.3C51,7.2,50.4,7,50.4,7c-0.3-0.2-0.4-0.1-0.5-0.1l0,0c-0.1,0.1,0,0.2,0,0.4c0,0.3-0.6,2.1-1,2.7
					c-0.2,0.3-0.4,0.5-0.7,0.4c-0.3-0.1-0.7-0.3-0.6-0.7c0.2-0.5,0.8-2.1,0.9-2.5C48.8,6.7,49,6.6,49,6.6h0c0.3-0.2-0.3-0.4-0.4-0.5
					c-0.3-0.1-0.5-0.2-0.8-0.4c-0.2-0.1-0.4,0-0.4,0c-0.1,0.1,0,0.3,0,0.5c0,0.1-0.4,1.2-0.5,1.6c-0.2,0.4-0.5,1.4-0.5,1.5
					c-0.3-0.2-0.5-0.4-0.8-0.6l0.1-0.1c0.3-0.4,0.1-1.1-0.2-1.5C46,7,46.3,6,45.9,5.4c-0.4-0.6-1.2-0.7-1.8-0.8
					c-0.3-0.1-0.5-0.1-0.7-0.2c-0.1,0-0.5-0.1-0.5,0h0l0,0.2c0.1,0.3,0.1,0.7,0,1c-0.2,0.7-0.4,1.4-0.5,2.1c-1-0.1-1.9,0-2.8,0.2
					c-0.1-0.1,0.1-0.7,0.1-0.8c0-0.1,0.1-0.3,0-0.4c-0.2-0.1-0.6,0.4-0.7,0.5c-0.2,0.3-0.5,0.5-0.9,0.6c-0.2,0.1-0.6,0.2-0.6-0.1
					c0-0.2,0-1.3,0-1.7c0.4-0.1,0.7,0,0.9,0.4c0,0.1,0.3,0,0.3,0c0-0.1,0-0.9,0-1.1c0-0.1-0.4,0.1-0.4,0.1c-0.2,0.1-0.7,0.1-0.8-0.1
					c0-0.4,0-0.8,0-1.3c0.2,0,0.4,0,0.5,0c0.3,0,0.6,0.1,0.8,0.3c0.2,0.1,0.3,0.3,0.5,0.3c0,0,0.3-0.1,0.1-0.5
					c0-0.2-0.1-0.4-0.2-0.6c-0.1-0.1-1.7-0.1-2-0.2c-0.3,0-0.9-0.1-1.2,0.1c-0.1,0.1,0,0.2,0.1,0.3c0.2,0.1,0.2,0.4,0.2,0.6
					c0,0.3,0.1,2.7,0.1,2.8c0,0.2-0.2,0.8-0.3,1.2c-0.1,0.2,2,0.1,2.4,0c-0.3,0.1-0.6,0.3-0.9,0.5c-0.3,0.2-0.8,0.4-0.8,0.9
					c0,0.2,0.1,0.3,0.1,0.5c0,0.3-0.1,0.5-0.2,0.8c0,0.4,0,0.8,0,1.2c0,0.3,0,0.6,0,0.9c0,0.2-0.4,1.1-0.5,1.3
					c-0.1,0.3-0.4,0.8-0.2,1.1c0.2,0.3,0.6,0.2,0.7,0.2c0,0-0.3,0.6,0,0.9c-0.1,0.2-0.2,0.7-0.1,0.9c-0.5,0.1-1.1,0.2-1.6,0.4
					c-0.5,0.2-1,0.5-1.4,0.8c-0.1,0-1.2,0.5-2.1,2.2c-0.1,0.1-0.6,0.7-0.8,1c-1.7,2.1-3.3,4.5-4.3,7.1c-0.2,0.7-0.7,1.9-0.2,2.5
					c-1.6-0.1-3.2-0.1-4.8-0.2c-0.9,0-1.7,0-2.6,0c-0.5,0-1.1,0.3-1.1,0.3c0.8-0.1,1.6-0.1,2.5-0.1c0.9,0,5.7,0.2,5.9,0.2
					c0.2,0,0.4,0,0.5,0c0.4,0.3,0.9,0.2,1.3,0.4c0.9,0.3,1.9,0.3,2.8,0.2c0.9-0.1,1.7-0.1,2.3-0.2c1.5,0,3.1,0.2,4.4-0.1
					c-1.2,0-2.4,0-3.5,0c0.1,0,4.5-2.1,5.1-2.3c0,0.1,0,0.3-0.1,0.4c-0.1,0.4-0.3,1.5-0.3,1.8c0,0.2-0.1,0.3-0.1,0.4
					c0,0.4,0.4,0.5,0.6,0.8c0.7,0.9,1.6,1,1.9,1c0,0.4,0.6,2,0.7,2.2c0,0-1.4,2.1-1.9,3.8c-0.1,0-0.6-0.2-0.7-0.3
					c-0.1-0.5-0.4-1-0.7-1.3c-0.2-0.3-0.4-0.6-0.8-0.6c-0.2,0-0.5,0-0.7-0.1c-1.9-0.2-3.8-0.4-5.6-0.6c-0.8-0.1-1.6-0.2-2.4-0.3
					l-0.2,0.2c0.3,0.3,0.6,0.7,0.9,1.1c-0.5,0-1,0-1.5,0l-0.1,0.1l0,0c0.2,0.2,0.4,0.4,0.6,0.6c-0.8,0.1-1.4,0.2-1.8,1
					c0,0.1-0.3,0.8-1,1.4c-0.3,0.3-0.6,0.5-0.6,1c0,0.2,0.2,0.2,0.4,0.2l0,0l0,0c-0.1,0.1-1.9,1.7-2.2,3.4c-0.2,1.1,0.3,3.3,0.4,3.8
					c0.1,0.5,0.5,4.1,0.4,5.5c0,0.1,0.2,3.8,0.2,4.5c0,0.4,0.2,0.4,0.2,0.4c0.4,0.1,0.9,0.2,1.3,0.4c0.2,0.1,0.4,0.2,0.4,0.4
					c0,0.2,0,0.4,0.1,0.6c0.2,0.7,1.3,0.3,1.8,0.3c0.8-0.1,1.6,0.2,2.4,0.2c0.2,0,1.4-0.1,1.6,0.1c0.1,0.1,0.1,0.2,0.2,0.2
					c0.4,0.3,0.9-0.1,1-0.1c0.2-0.2,0.7-0.9,0.8-1c0,0.4,0.5,0.9,0.4,1.1c0,0-1.1,1.1-1.2,1.6c0,0.2-0.1,0.4-0.1,0.5
					c-3-0.1-10.9-0.4-11.8-0.4c-0.4,0-0.2,0.3-0.2,0.3c3,0.1,10.7,0.2,11.9,0.3c0,0-0.2,0.4-0.1,0.8c0,0.1-1.1,1.2-1.3,2.5
					c-0.1,0.5,0.3,0.5,0.3,0.5c-0.1,0-0.8,0.6-2.3,0.9C24.3,68,19.3,65,15.3,60.8c-2.1-2.2-3.9-4.8-5.2-7.6c-0.1,0.1-0.8,0.7-1.6,1
					c0-0.3-0.2-0.5,0.2-0.7C9.1,53.5,9.1,53,9.1,53c0.1-0.1,0.5-0.3,0.7-0.4v0c0.1-0.1,0.8-0.8,1-1c0.2-0.2,0.3-0.5,0.4-0.8
					c0-0.2,0.1-0.3,0.5-0.4c0.3-0.1,0.5-0.6,0.5-0.8c0-0.2-0.1-0.5-0.2-0.7c-0.1-0.4-0.1-1,0.1-1.2c0.2-0.3,0.6-0.7,0-1.3
					C11.9,46,12,45.6,12,45.3c0-0.4-0.3-1.1-1.6,0c-0.1,0.1-0.2-0.1-0.4-0.1c-0.1,0-0.5,0-0.8,0.7c-0.1,0.2-0.3,0.3-0.5,0.2
					c-0.1-0.1-0.3,0.1-0.5,0.1c-0.2,0.1-0.4,0.1-0.5,0.1c-0.1-0.3-0.1-0.6-0.2-0.9c-1.2-6.4-0.5-13,2.3-18.9c1.8-3.8,3.9-7.4,7-10.1
					l-0.2,0.1c-4.8,4.2-7.8,10-9.3,16.3c-1,4.5-1.1,9.4,0,14l0,0.1c0.3-0.1,1-0.8,1-0.8c1,0.1,0.9-0.4,1.1-0.6
					c0.1-0.2,0.3-0.3,0.5-0.3c0.2,0,0.3,0,0.5,0c0.3-0.1,0.7-0.4,1-0.4c0.3,0,0.2,0.3,0.1,0.7c0,0.2,0,0.5,0.2,0.6
					c0.4,0.2,0.2,0.5,0.1,0.8c-0.1,0.2-0.3,0.3-0.4,0.5c-0.1,0.3,0.1,0.6,0.1,1c0,0.1,0.2,0.6,0.2,0.7c0,0.3-0.5,0.5-0.9,0.5
					c-0.1,0-0.2,0.3-0.2,0.4c0,0.2,0,0.4-0.1,0.6c-0.1,0.3-0.4,0.5-0.7,0.7c-0.2,0.1-0.3,0.4-0.4,0.6c0,0.1-0.5,0.3-0.7,0.3
					c-0.5,0.1-0.3,0.7-0.3,0.8c0,0.1-0.3,0.2-0.4,0.3c-0.2,0.1-0.3,0.5-0.3,0.8c-0.1,0-0.2,0-0.3,0c-0.1-0.8,0.2-1.5,0.4-2.2
					c0.3-0.9,0.7-1.9,1.1-2.8c0.5-1.1,1.1-2.2,1.7-3.3c0,0.1-0.1-0.1-0.2,0.1c-0.7,1.1-3,5.3-3.1,5.9c0,0.1-0.2,0.1-0.4,0.1
					c-0.1-0.2-0.1-0.5,0-0.7c0,0.1-0.6,0.4-0.1,1.1c0,0.3-0.2,1,0.2,1.2c0.1,0.2,0.2,0.8-0.1,0.7c-0.3-0.3-0.5-0.9-0.5-1.3
					c0-0.2,0.1-0.3,0-0.5c-0.1-0.3-0.3-0.5-0.2-0.8c0-0.1,0.4-0.8,0.1-1c-0.5-0.5-0.3-1,0-1.4c0.1-0.2,0.5-0.3,0.4-0.8
					c0-0.2-0.1-0.3-0.1-0.4c-0.1-0.5,0.3-0.8,0.6-1.1c-0.2-0.3-0.7-0.6-0.9-0.7c-0.9-0.4-1.9-0.6-2.9-0.8C2.5,45.5,1.1,45,0.5,44
					l0.1,0.7c0.3,0.6,0.7,0.7,1.3,1c0.4,0.2,0.8,0.4,1.1,0.5c-0.3,0.2-0.7,0.3-0.7,0.9c0,0,0,0.6,0,0.8c0,0.4-0.1,0.6-0.2,0.9
					C2,49.1,2.4,49.6,2.5,50c0,0-0.1,0.4-0.1,0.5c-0.1,0.8,0.8,1.8,1.4,2.2C4,53,4.2,53.3,4.5,53.5c0.2,0.1,0.6,0.3,0.5,0.5
					c-1-0.4-1.9-1.1-2.7-1.9l-0.1,0.5c3.6,4.3,7.3,1.6,7.6,1.3c2.2,4.4,5.6,8.2,9.6,11c3,2.1,6.4,3.8,10,4.7c0.1,0.5,0.3,1,0.8,1.1
					c0.3,0.1,0.5-0.1,0.6-0.1c0.2,1.2,2-0.3,2.2-0.5c-0.1,0.1-1.9,1.1-2,0.5c0-0.2,0.1-0.3,0.2-0.4c0.3-0.2,0.8-0.6,0.8-0.6
					c-0.8,0.5-1.2,0.7-1.2,0.8c-0.4,0.1-0.6,0-0.8-0.3c-0.1-0.2,0-0.5,0-0.5c0.4-0.1,0.7-0.2,1.1-0.3c1.7-0.5,3.8-2.4,4-3.1
					c1.9-0.8,4.4-1.1,4.6-1.2c-1.4,0-3.4,0.4-5.7,1.5c-0.7,0.3-1.4,0.7-1.2,1c0.1,0.2,0.5-0.1,0.5-0.1c0.2-0.4,1.4-0.9,1.4-0.9
					c0,0.1-0.7,1-1.6,1.6c-0.1,0-0.5,0.4-0.7,0.1c-0.3-0.5,0.9-2.1,1.1-2.3c0.2-0.2,0.2-0.2,0.2-0.5c0-0.1,0.2-0.7,0.3-0.7
					c0.1-0.2,0.2-0.4,0.2-0.6c0.1-0.4,0.4-0.8,0.7-1.1c0.3-0.4,0.4-0.7,0.3-0.9c-0.2-0.4-0.5-0.8-0.4-1.2c-0.1-0.3-0.4,0-0.5,0.2
					c-0.2,0.3-0.8,1.2-1.1,1.4c-0.1,0-0.2-0.1-0.3-0.2c-0.1-0.1,0.1-0.2,0.1-0.3l-1.1,0c-0.2,0-0.8,0.1-1.6-0.1
					c-0.5-0.2-1-0.2-1.6-0.2c-0.4-0.1-0.9,0-1.3,0.1c-0.1,0-0.6,0-0.6-0.7c0-0.2-0.5-0.4-0.6-0.5C25.7,60.1,25,60,25,60h0
					c-0.2,0-0.2-0.4-0.2-0.5c-0.1-0.4-0.1-3.1-0.1-4c0.2-1.9-0.2-3.9-0.5-5.8c-0.1-0.9-0.4-1.8-0.4-2.7c0.1-3,2.9-4.5,3-4.5
					c0.8,0,2.5,0,2.5,0c-0.4,0.1-4,1.4-3.5,4.6c0.2,1.4,0.9,2.7,1.6,3.9c0.8,1.3,2.9,3.6,2.9,3.6c-1.3-1.5-2.6-3.8-3.2-4.9
					c-2.3-4.2-0.1-5.4,0.5-5.9c0.9-0.8,2.7-1.2,2.8-1.2c0.1,0.8,1.3,0.6,1.3,0.6c0.2,0.2,3.6,3.9,3.7,3.9c2,0.1,1.1,0.1,5.3,0.3
					c0.4,0,4.7,0.1,5-0.3c0.2-0.3,0-0.9-0.1-1.1c-0.2-0.5-0.5-1-0.9-1.4c-0.3-0.4-0.6-0.8-1-1.2c0.7,0.4,1.2,1.1,1.7,1.7l0-0.1
					c-0.9-1.9-2.1-2.1-2.1-2.1h0c-0.2-0.2-0.3-0.3-0.5-0.5c-0.2-0.2-0.3-0.3-0.5-0.5c0.9-0.5,1.8,0,1.9,0c0.5,0,1,0.2,1.4,0.4
					c0.4,0.2,1.4,0.8,1.6,0.9c0.8,0.3,1.6,0.8,2.3,1.4c0.3,0.3,0.7,0.7,1,1.1c0.5,1,0.4,2.1-0.3,3c-0.2,0.3-1.4,2.1-3.1,1.9
					c-0.6,0-1.2,0-1.8,0c-1.9,0-7.4-0.4-8.2-0.6c-0.8-0.2-1.5-0.6-2-1.2c-0.5-0.7-1.2-1.2-1.7-1.9C33,45.7,32,44.9,32,44.8
					c0,0,1.3,1.6,1.6,2c0.5,0.6,1.6,2.2,2.3,2.8l0,0.2c-0.1-0.1-1.8-0.6-3.1-2.7c-0.1-0.1-0.2-0.1-0.1,0.1l0.6,0.9l-1-0.7
					c0,0-0.8-0.3-0.7,0.3c0,0.6,2.3,1.1,3.2,1.7c-0.2,0-2.1-0.7-3-0.2c-0.6,0.3-3.3-0.1-3.3-0.1c2.1,0.9,3.2,0.4,4.8,0.4
					c0.4,0,0.8,0.2,1.3,0.2c0.1,0,0.4,0,0.6-0.1c0.1,0.1,0.3,0.2,0.4,0.3l0,0l0,0l0,0c0.9,1.1,1.6,2.6,1.3,4.1
					c-0.2,1.3-1.4,2.1-2.6,2.3c0,0,1.7,0.3,2.5-0.9c0.9-1.4,0.2-3.6,0.2-3.6c0.8,0.8,1.1,2,1,3.2c-0.1,0.8-0.3,1.6-0.6,2.3
					c-0.1,0.2-0.2,0.3-0.3,0.5L36.8,58c0,0,1.1-0.7,1.3-3.2c0,0.1,0,0.3,0,0.4c0.1,1,0,2.7,0.4,3.3c0,0-0.2-1.6,0-2.9
					c0.2,0.2,1.3,1.4,1.4,1.5c0.2,0.5-1,2-1,2.3c0,0.2,0.2,1.7,0.3,2.1c0.2,0.9,0.4,1.8,0.7,2.7c0.3,0.8,0.9,1.4,1,2.2
					c0.2,0.7-0.1,1.5-0.7,1.9c-0.1,0.1-2.9,1.7-3,1.8c-0.7,0.6-2,0.8-2,0.8c0,0-0.6,0.4-0.9,0.4c-0.5-0.1,0.1-0.6,0.3-0.8h0
					c0,0-0.9,0.7-1.3,0.6c-0.4-0.1-0.3-0.3-0.1-0.4c0.3-0.2,0.7-0.6,0.7-0.6c0,0-1,0.7-1.3,0.7c-0.5,0.1-0.6-0.2-0.6-0.2
					c-0.1,0.1,0,0.6,0.7,0.4c0.2,0.4,0.7,0.4,1.2,0.1c-0.1,1,1.5,0.1,1.6,0.1c1.1-0.1,1.8-0.7,2.1-1l2.3-0.3
					c0.2,0.3,0.6,0.1,0.8,0.1c0,0.3,0.4,0.5,0.7,0.6c1,0.3,1.9-0.7,2.3-1.5l0.1-0.1c5.2-1.5,10-4.8,13.6-8.9
					c3.2-3.6,5.5-8.1,6.6-12.8c0.2-0.2,0.4-0.3,0.6-0.4c-0.1,0.2-0.1,0.3-0.2,0.7c-0.1,0.3,0.1,0.1,0.1,0.1c0.3-0.5,1.8-1.6,1.9-1.7
					c-0.2,0.4,0.1,1.3,0.1,1.8c-0.1,0.7-0.3,1.3-0.5,2c0,0,0,0-0.7,2c-0.2,0.5,0.5,1.3,0.5,1.3c0,0,0.1-0.8,0.4-1c0,0-0.1-0.2,0-0.5
					c0-0.2,1.7-4.3,2.7-5.8c0.5-0.6,0.9-0.8,1.4-1c0.3,2-0.3,3.9-1.2,5.7c-0.2,0.4-0.6,0.8-0.9,1.2l-0.2,0c0-0.2,0.2-0.4,0.3-0.5
					c-0.1,0.1-0.4,0.1-0.5,0.5h-0.1c0.1-0.3,0.4-1.3,0.7-1.7c0.4-0.5,0.7-1,0.9-1.6c0.3-0.7,0.6-1.7,0.8-2.5c0,0-0.1-0.2-0.2,0.1
					c-0.4,0.8-1.1,1.6-1.3,2.5c0-0.1,0.1,0.2,0.2-0.1c0.1-0.6,0.2-0.5,0.3-0.4c0,0.1-0.1,0.2-0.1,0.3c-0.1,0.3-0.3,0.8-0.5,1
					c-0.2,0.3-0.8,1.1-0.9,1.4c-0.1,0.2-0.2,0.5-0.4,0.7c-0.3,0.6-0.9,1.1-1,1.7c0,0,0.1,0,0.2-0.1c0.4-0.6,0.7-1.1,1.1-1.4v0
					c0.3,0,0.5,0.1,0.8,0.2c0,0,0.3,0.4-0.4,1.2c-0.3,0-0.5-0.1-0.8-0.1c-0.6-0.1-0.5,0.2-0.5,0.2c1,0.2,2.2,0.3,2.9-0.6l-0.1-0.2
					c-0.3,0.4-0.7,0.7-1.2,0.7c0.1-0.2,0.4-0.5,0.4-0.8c0.1-0.2-0.1-0.4,0-0.5c0.1-0.2,0.5-0.9,0.7-1.3c0.9-1.7,1.4-3.8,1.1-5.8
					c0.4-0.2,0.8-0.5,1-0.9L71.4,43.6z M60.4,32.5l0.3-0.2l0.2,0.2c0.1,0.5,0.4,0.3,0.5,0.5c-0.4,0-1.8-0.1-1.5-1.6
					c0.1-0.7,0.9-1.9,0.9-1.9c0.2,0,0.4-0.1,0.6-0.1c0.2,0,0.5-0.1,0.6,0.1c0,0-0.1-0.5-0.9-0.2c-0.1,0-0.4,0.1-0.3-0.3
					c0.1,0,0.3,0,0.3-0.2c0.3-0.5,0.7-0.2,0.7-0.2c-0.1-0.3-0.3-0.4-0.5-0.2c-0.2,0.1-0.2,0.4-0.5,0.4c-0.4,0.1-0.7-0.5-0.3-1
					c0.3-0.5,1.1-0.2,1.4,0c0.2,0.1,0.4,0.3,0.6,0.5c0.4,0.9,1.4,4.3,1.7,6.1l-0.2,0.1c-0.3-1.3-1.3-2.5-2.5-2.9
					c0.7,0.3,2.1,1.8,2.3,3c-0.1-0.3-2.1-3.2-3.3-2.4C60,32.3,60.4,32.5,60.4,32.5z M63.4,41.5c-0.2,0-1.2,0.3-1.2-0.5
					c0-2.2-0.5-8-0.7-8.7c0.2,0.1,0.4,0.3,0.6,0.4c0.3,0.3,0.7,0.6,1,1c0.1,1,0.3,2.4,0.4,3.4C63.5,38.3,63.6,39.8,63.4,41.5z
					 M63.8,41.5c0.2-1.4-0.2-6.4-0.2-6.4c0,0,0.4-0.2,0.6,0c0.3,2.1,0.4,4.2,0.2,6.4C64.2,41.4,64,41.4,63.8,41.5z M61.1,45.9
					l0.2-0.1L61.1,45.9z M38.8,21.7c-1.7,0.9-3.1,2.5-4.3,3.9c-0.5,0.6-1.2,0.9-1.9,1.2c0.1-0.1,2.1-4.8,2.3-5c0,0,0.5-0.3,0.9-0.3
					c0.6,0,1.1,0,1.6,0c0.4,0,0.9-0.1,1.3,0l0,0L38.8,21.7L38.8,21.7z M49.4,16.5c0,0,0.3,0.8-0.5,0.3c0,0-0.4,0.1-0.6-0.9
					C48.3,15.9,49.2,16.1,49.4,16.5z M47.9,14c0.1,0,0.6,0.2,0.6,0.2c0.5,0.1,0.4,0.4,0.4,0.4c-0.2,0.2-0.8-0.2-0.8-0.2
					C47.7,14.3,47.9,14,47.9,14z M48.8,6.7L48.8,6.7L48.8,6.7L48.8,6.7z M48.8,6.7L48.8,6.7L48.8,6.7L48.8,6.7z M43.9,6.2
					c0-0.3,0.1-0.6,0.2-0.9l0,0l0,0l0.1-0.1c0.2,0,0.6,0.1,0.7,0.4c0.2,0.4,0,1.1-0.5,1.2c-0.2,0-0.4,0-0.5-0.2L43.9,6.2z M43.6,7.2
					L43.6,7.2l0.1-0.1c0.2,0,0.6,0.1,0.7,0.2c0.3,0.2,0.1,0.7,0,1c-0.3-0.1-0.6-0.2-0.9-0.3C43.5,7.9,43.6,7.3,43.6,7.2L43.6,7.2z
					 M39.1,7.1c-0.1,0.1-0.1,0.2-0.2,0.2C39,7.3,39.1,7.2,39.1,7.1z M6,46.7c0.1,0,0.3,0.1,0.4,0.2C6.6,47,6.9,47,7.1,47.2
					c0,0-1-0.2-0.5,1.5l0,0.1C6.5,48.4,5.8,47.1,6,46.7z M4.4,47c0-0.2,0.1-0.5,0.2-0.7c0.1,0,0.8,0.1,1,0.2c0,0.3,0.2,1.3,1,2.3
					c0,0.3-0.4,0.5-0.5,0.8c-0.1,0.5-0.5,1.1-0.4,1.5c-0.2-0.1-0.3-0.2-0.5-0.4l-0.1-0.1l0,0c-0.1-0.6,0.6-1,0.7-1.7
					c-0.1,0-0.1,0-0.2,0.1C5.4,49.6,5,50.1,5,50.6c-0.2-0.2-0.4-0.4-0.5-0.7c0-0.2-0.1-0.5-0.1-0.8c0.1-0.3,0.4-0.7,0.7-0.9
					c-0.1,0.1-0.5,0.1-0.7,0.4c0-0.1,0-0.2,0-0.3C4.4,48,4.4,47.5,4.4,47z M3.7,51.2c-0.3-0.2-0.4-0.8-0.4-0.8c0-0.1,0-0.3,0-0.4
					c0-0.2-0.1-0.8-0.2-0.8c-0.1-0.1-0.1-0.3-0.1-0.5c0-0.2,0-0.3,0.1-0.5c0.2-0.3,0.1-1.1,0.1-1.1c-0.1-0.1-0.2,0.1-0.2,0.1
					c0,0,0,0.7-0.1,1.1c-0.1,0.2-0.1,0.3-0.2,0.5c0,0.2,0.1,0.4,0.2,0.7c0.1,0.5,0,0.9,0,1c0,0.1,0.5,1.2,0.7,1.6h0l0,0.2
					C2.3,51,2.8,50,2.8,50c-0.1-0.1-0.1-0.4-0.2-0.5c-0.1-0.4-0.1-0.8,0-1.2c0.1-0.3,0.2-0.6,0.1-0.9c-0.2-0.8,0.4-0.9,0.7-1.1
					c0.1,0,0.6,0.1,0.8,0.1c-0.1,0.2,0,0.5-0.1,0.8c0,0.5-0.2,2.5,0.1,3.2C4,50.4,3.7,50.8,3.7,51.2z M5.8,54.3c0-0.8-1.1-1-1.2-1.1
					c-0.2-0.1-0.3-0.3-0.5-0.5c-0.2-0.4-0.1-0.8-0.2-1.3c-0.1-0.8,0.6-1,0.6-1v0l0,0c0.2,0.2,0.3,0.3,0.5,0.5
					c0.2,0.2,0.5,0.4,0.8,0.5C5.9,51.8,6,51.7,6,52.1c0,0.4-0.2,0.8-0.1,1.2c0,0.4,0.2,0.9,0.5,1.2C6.2,54.4,6,54.4,5.8,54.3z
					 M34.4,60.8L34.4,60.8L34.4,60.8L34.4,60.8z M24.8,60.1L24.8,60.1L24.8,60.1L24.8,60.1z M26.8,42.5L26.8,42.5L26.8,42.5z
					 M45.3,45.7c0.4,1,0.1,1,0,1.1c-0.1,0.1-0.9,0.1-0.9,0.1c-0.9,0-1.7,0-2.6,0c-1.8,0-6-0.2-6.2-0.2c-0.1,0-0.1,0-0.2,0
					c-0.5-0.5-1-1.1-1.5-1.7c-0.6-0.7-1.2-1.3-1.8-2c-0.1-0.1-0.2-0.3-0.3-0.2c-1.1,0.3-1.1-0.7-1.2-0.7c-1.4,0-2.5-0.1-4.2,0
					c-0.2,0-0.6,0.2-0.8,0.2c-0.4-0.1,0-0.5,0.2-0.7c0.3-0.3,0.8-0.8,1-1.3c0.1-0.3,0.3-0.5,0.5-0.7c0,0,0.4,0.3,0.7,0.3
					c0.3,0.1,2.1,1.1,2.6,1.4c0,0-1.7-1.4-2.3-1.5c-0.3-0.1-0.5-0.1-0.7-0.3c0.4-0.3,1.3-0.3,1.3-0.4c0,0,1.3,1.1,1.7,1.6
					c0,0-0.8-1.1-1.3-1.6c-0.3-0.3-0.6-0.6-1-0.9c0.5,0,0.9,0,1.4,0c0,0,0.8,0.8,1.1,1.3c0.2,0.4,0.6,0.9,0.6,1.4
					c0,0.1-0.2,0.4-0.2,0.6c0,0.4,0.3,0.4,0.4,0.7l0.2-0.1c-0.1-0.3-0.4-0.3-0.4-0.7c0-0.2,0.2-0.4,0.2-0.7c0.1-0.5-0.4-1.1-0.6-1.4
					c-0.5-0.8-1.1-1.6-1.7-2.3c2.8,0.3,5.6,0.6,8.3,0.9c0.6,0,1.3,1.7,1.4,1.9c-1.5-0.4-3-0.4-4.5-0.4c-0.6,0-1.5-0.1-2,0.1
					c-0.7,0.2-0.7,1-0.7,0.9c0,0,0.2-0.8,1.4-0.8c0.7,0,1.7,0,2.3,0c2.3,0.1,4.8,0.3,6.7,1.9C42.9,42.3,45,45,45.3,45.7z M34.2,71
					L34,71.1L34.2,71z M36.7,70.7c0.2-0.1,0.3-0.2,0.5-0.4C37,70.5,36.9,70.7,36.7,70.7z M54.1,53.2c0.4-0.2,0.9-0.7,0.8-0.7
					c0.8-0.5,1.3,0,1.3,0c0,0-0.2,0.3-0.3,0.4c0,0-0.7,1-1.8,1.6c-0.7,0.4-3.3-0.6-2.4-2c0.1-0.1,0.3-0.1,0.4-0.2
					c-0.1,0.2-0.1,0.3-0.1,0.4c-0.1,0.4,0.3,0.6,0.5,0.5C52.8,53.3,53.5,53.6,54.1,53.2z M55.1,45c-0.1-1-0.1-2.1-0.2-3.1
					c-0.1-1.1-0.2-2.1-0.3-3.2c-0.1-0.5-0.1-0.9-0.1-1.4c0-0.5-0.2-1.9-0.4-2.3c0.2,0.2,0.7,0.6,0.7,0.6c-0.4-0.5-1.8-2.1-2.3-3.1
					c-0.4-0.7-0.7-1.5-0.9-2.2c1.6,0.3,3.7,0,4.5-0.4c1.1,2.4,1.7,5.1,2.1,7.7c0.2,1.2,0.2,2.4,0.2,3.6c0,1.4-0.2,2.9-0.4,4.3
					c-0.2,1.2-0.5,2.5-1.1,3.6c-0.2,0.3-0.3,0.4-0.5,0.6c-0.5,0.5-1.1,0.7-1.7,1.2l-0.3,0.1c-0.2,0.2-0.4,0.7-0.5,0.9
					c-0.3,0.5-0.9,1.1-1.1,1.2c-0.2,0.1-0.5,0.1-0.5-0.4c0-0.2,1.8-2.9,2-3.2c0.2-0.2,0.3-0.5,0.5-0.6c0.1-0.1,0.2-0.1,0.3-0.2
					C55.3,48.1,55.2,45.5,55.1,45z M54.6,49l0.1-0.1L54.6,49z M36.6,49.9c-0.1,0.1-0.2,0.2-0.4,0.2C36.3,50,36.5,50,36.6,49.9z
					 M37.9,70.1l-0.1,0.1L37.9,70.1L37.9,70.1L37.9,70.1z M43.9,67.7c-0.1,0.7-0.8,1.7-1,1.9c-0.8,1-1.9,1-2,0.6
					c-0.1-0.3,0.6-0.8,0.7-1c0.3-0.5,0.2-1.1,0.2-1.1c0,0.4-0.4,0.9-0.7,1.3c-0.3,0.3-0.5,0.7-0.6,0.7c-0.1,0.1-0.4,0.1-0.5-0.1
					c-0.2-0.3,0.1-0.5,0-0.4c0.9-0.4,1.1-0.9,1.2-1.4c0,0.1-0.3,0.9-1.1,1.2c-0.2,0.1-0.3,0.1-0.3,0.3c-0.6-0.4-0.1-0.6,0.6-1
					c0,0,0.3-0.3,0.6-0.5c0.5-0.6,0.4-1.5,0.1-2.2c-0.1-0.4-0.3-0.8-0.4-1.2c-0.3-1.1-0.6-2.4-1.2-3.4c-0.1-0.2-0.3-0.5-0.3-0.7
					c0-0.2,0-1,0.1-1.1c0.1-0.2,0.7-1.1,0.9-1.3l0,0c0.5,1,2.3,1.1,2.7,1.2c1.3,0.4,1.4,1.6,1.3,2c0,0.5-0.2,0.9-0.4,1.3
					c-0.3,0.9-0.7,1.8-0.7,2.7C43.4,65.8,44,67.2,43.9,67.7z M44.2,68.6c-0.1,0-0.1-0.1-0.1-0.1c0.7-1.1-0.2-2.9-0.2-3.2
					c0-0.5,0.3-2.5,0.4-2.9c0.1-0.6,0.4-1.2,0.3-1.8c-0.1-0.7-0.7-1.2-1.2-1.4c-0.3-0.1-2.3-0.3-2.9-1.4c0,0,0.2-0.1-0.8-1.2
					c-0.4-0.4-0.8-0.9-1.2-1.3c-0.3-2.5-1.9-3.9-1.9-3.9l0,0l0,0h0c-0.2-0.4-0.4-0.8-0.6-1.1c0.3,0,0.5,0,0.7-0.2
					c0.4,0.1,0.7,0.2,1.1,0.3c1,0.1,1.9,0.3,2.9,0.4c1,0.1,2,0.2,3,0.3c1,0.1,2,0.1,3,0.1c0.9,0,1.9,0,2.8,0
					c0.8-0.1,1.6-0.1,2.3-0.3c1.6-0.5,2.5-2.8,2.8-2.7c0.2,0.1,0,0.7-0.1,0.8c-0.1,0.1-0.7,0.8-2.2,3.5c0,0-0.9,0.1-0.9,1
					c0,1.3,2.3,2,2.7,1.8c0,0,0.8-0.3,1.9-1.4c-0.2,0.4-0.5,0.9-0.6,1.3c-0.2,0.7-2.1,4.6-2.7,6.2c-0.3-0.6-0.7-1.1-1.3-1.5
					c-0.3-0.2-0.6-0.3-0.9-0.4c-0.3-0.1-1-0.3-1.1-0.7c0,0,0-3.9-0.2-5.2c0-0.4-0.3-1.3-0.5-1.6c0,0,0.5,1.7,0.3,2.8
					c-0.1,0.4,0.1,1.9,0.2,3.2c-0.4-0.3-1-0.6-1.5-0.7c-0.5-0.2-0.6-1-0.6-1.5c0-0.5,0.1-0.9,0.1-1.4c0.1-0.8,0-1.6-0.2-2.4
					c0,0,0,1.7,0,2.5c0,0.5-0.1,0.9-0.1,1.4c0,0.5,0,1.3,0.6,1.5c0.5,0.2,1.3,0.5,1.8,0.9c0,0.2,0,0.4,0,0.5c0,0.5,1.6,1,1.9,1.1
					c0.7,0.4,1.2,1,1.5,1.7c0,0-0.8,2.1-0.1,2.8C50,66.2,47.4,67.6,44.2,68.6z M61.4,53c-0.4,0.2-0.9,0.4-0.9,0
					c0-0.2,0.6-2.1,0.8-2.9c0.4-1.7,1.1-5.2,1.1-5.2c0.1,0,0.5,0.2,0.7,0.1C63,46.9,62,51.8,61.4,53z M63.4,47.8
					c-0.4,1.7-0.8,2.2-0.8,2c0.3-1.7,0.8-2.7,1-4.4c0.1,0,0.2-0.1,0.3-0.1C63.8,46.3,63.7,46.9,63.4,47.8z M65.6,52.8
					c-0.5-0.6,0.3-2.1,0.3-2.1c0,0,0.2-0.1,0.3-0.1l0,0l0,0C65.5,51.7,65.6,52.7,65.6,52.8z M67.8,47.1c-0.1,0.5-0.3,0.6-0.7,1.3
					c0,0-0.1-0.1-0.1-0.2c0-0.6,0.4-1.7,0.5-1.9c0,0-0.6,0.2-1.3,4.1L66,50.5c0.1-0.2,0.1-0.4,0.2-0.6c0.2-0.7,0.4-1.4,0.5-2.1
					c0.1-1.7,1.2-2.2,1.3-2.1C68.1,46.1,67.9,46.7,67.8,47.1z"/>
			</g>
		</g>
		<path class="st0" d="M193.8,8.7h20v3.4h-16v9.7h14v3.4h-14v14h-4.1L193.8,8.7L193.8,8.7z M224.2,8.7h4.5l11.9,30.5h-4.5l-3.3-9.2
			h-12.9l-3.4,9.2h-4.2L224.2,8.7z M221.2,26.6h10.3l-5.1-14.2h-0.1L221.2,26.6z M243.6,8.7h10.5c9.4,0,14.6,4.7,14.6,14.5
			c0,10.2-4.5,16-14.6,16h-10.5V8.7z M247.7,35.8h6.7c2.8,0,10.2-0.8,10.2-12c0-7.3-2.7-11.7-10.2-11.7h-6.8L247.7,35.8L247.7,35.8z
			 M298,28.2c0,7.7-4.4,11.7-12,11.7c-7.9,0-12.5-3.6-12.5-11.7V8.7h4.1v19.5c0,5.4,3.1,8.3,8.5,8.3c5.1,0,7.9-2.9,7.9-8.3V8.7h4.1
			L298,28.2L298,28.2z M304,31.3h7.9v7.9H304V31.3z M193.9,53.1h5.8v1h-4.7v2.8h4.1v1h-4.1v4.1h-1.2V53.1z M206.6,61.9
			c-0.2,0.1-0.4,0.2-0.8,0.2c-0.5,0-0.9-0.3-0.9-1c-0.6,0.7-1.4,1-2.3,1c-1.2,0-2.1-0.5-2.1-1.8c0-1.5,1.1-1.8,2.2-2
			c1.2-0.2,2.2-0.1,2.2-0.9c0-0.9-0.8-1.1-1.4-1.1c-0.9,0-1.6,0.3-1.6,1.2h-1.1c0.1-1.6,1.3-2.2,2.7-2.2c1.2,0,2.4,0.3,2.4,1.8v3.3
			c0,0.5,0,0.7,0.3,0.7c0.1,0,0.2,0,0.3-0.1V61.9z M204.9,58.6c-0.4,0.3-1.2,0.3-1.9,0.4c-0.7,0.1-1.3,0.4-1.3,1.2
			c0,0.7,0.6,0.9,1.2,0.9c1.4,0,2-0.9,2-1.5V58.6z M211.9,57.6c-0.2-0.8-0.7-1.3-1.6-1.3c-1.5,0-2,1.2-2,2.5c0,1.2,0.5,2.4,1.9,2.4
			c1,0,1.6-0.6,1.8-1.6h1.1c-0.2,1.6-1.2,2.5-2.8,2.5c-2,0-3-1.4-3-3.3c0-1.9,1-3.5,3-3.5c1.5,0,2.6,0.7,2.8,2.2H211.9z M219.6,61.9
			h-1v-1h0c-0.4,0.8-1.2,1.2-2.1,1.2c-1.7,0-2.2-1-2.2-2.4v-4.2h1.1v4.4c0,0.8,0.5,1.3,1.3,1.3c1.3,0,1.9-0.9,1.9-2v-3.6h1.1
			L219.6,61.9L219.6,61.9z M221.2,53.1h1.1v8.9h-1.1V53.1z M225.4,55.5h1.3v0.9h-1.3v4c0,0.5,0.1,0.6,0.8,0.6h0.5v0.9h-0.8
			c-1.1,0-1.5-0.2-1.5-1.4v-4.1h-1.1v-0.9h1.1v-1.9h1.1L225.4,55.5L225.4,55.5z M233.6,61.9c-0.2,0.1-0.4,0.2-0.8,0.2
			c-0.5,0-0.9-0.3-0.9-1c-0.6,0.7-1.4,1-2.3,1c-1.2,0-2.1-0.5-2.1-1.8c0-1.5,1.1-1.8,2.2-2c1.2-0.2,2.2-0.1,2.2-0.9
			c0-0.9-0.8-1.1-1.4-1.1c-0.9,0-1.6,0.3-1.6,1.2h-1.1c0.1-1.6,1.3-2.2,2.7-2.2c1.2,0,2.4,0.3,2.4,1.8v3.3c0,0.5,0,0.7,0.3,0.7
			c0.1,0,0.2,0,0.3-0.1V61.9z M231.9,58.6c-0.4,0.3-1.2,0.3-1.9,0.4c-0.7,0.1-1.3,0.4-1.3,1.2c0,0.7,0.6,0.9,1.2,0.9
			c1.4,0,2-0.9,2-1.5V58.6z M240.3,61.9h-1.1v-0.9h0c-0.3,0.7-1.2,1-2.1,1c-2,0-3-1.6-3-3.4c0-1.8,1-3.4,2.9-3.4
			c0.7,0,1.6,0.3,2.1,1h0v-3.3h1.1L240.3,61.9L240.3,61.9z M237.3,61.2c1.4,0,2-1.2,2-2.4c0-1.3-0.6-2.4-2-2.4
			c-1.4,0-1.9,1.2-1.9,2.5C235.3,60,236,61.2,237.3,61.2z M251.2,61.9h-1.1v-0.9h0c-0.3,0.7-1.2,1-2.1,1c-2,0-3-1.6-3-3.4
			c0-1.8,1-3.4,2.9-3.4c0.7,0,1.6,0.3,2.1,1h0v-3.3h1.1L251.2,61.9L251.2,61.9z M248.2,61.2c1.4,0,2-1.2,2-2.4c0-1.3-0.6-2.4-2-2.4
			c-1.4,0-1.9,1.2-1.9,2.5C246.2,60,246.8,61.2,248.2,61.2z M258.3,59.9c-0.3,1.4-1.3,2.2-2.8,2.2c-2.1,0-3-1.4-3.1-3.4
			c0-1.9,1.3-3.4,3-3.4c2.3,0,3,2.1,2.9,3.7h-4.8c0,1.1,0.6,2.1,2,2.1c0.9,0,1.5-0.4,1.7-1.3H258.3z M257.3,58.1
			c0-1-0.8-1.8-1.9-1.8c-1.1,0-1.8,0.8-1.8,1.8H257.3z M265.5,53.1h1.3l3.5,8.9H269l-1-2.7h-3.8l-1,2.7h-1.2L265.5,53.1z
			 M264.6,58.3h3l-1.5-4.2h0L264.6,58.3z M271,55.5h1v1.4h0c0.5-1,1.2-1.5,2.4-1.5v1.1c-1.7,0-2.3,1-2.3,2.6v2.9H271L271,55.5
			L271,55.5z M280.7,64.4h-1.1v-3.3h0c-0.3,0.7-1.2,1-2.1,1c-2,0-3-1.6-3-3.4c0-1.8,1-3.4,2.9-3.4c0.7,0,1.6,0.3,2.1,1h0v-0.9h1.1
			V64.4z M277.7,61.2c1.4,0,2-1.2,2-2.4c0-1.3-0.6-2.4-2-2.4c-1.4,0-1.9,1.2-1.9,2.5C275.7,60,276.3,61.2,277.7,61.2z M287.6,61.9
			h-1v-1h0c-0.4,0.8-1.2,1.2-2.1,1.2c-1.7,0-2.2-1-2.2-2.4v-4.2h1.1v4.4c0,0.8,0.5,1.3,1.3,1.3c1.3,0,1.9-0.9,1.9-2v-3.6h1.1
			L287.6,61.9L287.6,61.9z M290.4,54.3h-1.1v-1.3h1.1L290.4,54.3L290.4,54.3z M289.3,55.5h1.1v6.4h-1.1V55.5z M293.5,55.5h1.3v0.9
			h-1.3v4c0,0.5,0.1,0.6,0.8,0.6h0.5v0.9h-0.8c-1.1,0-1.5-0.2-1.5-1.4v-4.1h-1.1v-0.9h1.1v-1.9h1.1V55.5z M301.4,59.9
			c-0.3,1.4-1.3,2.2-2.8,2.2c-2.1,0-3-1.4-3.1-3.4c0-1.9,1.3-3.4,3-3.4c2.3,0,3,2.1,2.9,3.7h-4.8c0,1.1,0.6,2.1,2,2.1
			c0.9,0,1.5-0.4,1.7-1.3H301.4z M300.4,58.1c0-1-0.8-1.8-1.9-1.8c-1.1,0-1.8,0.8-1.8,1.8H300.4z M307,57.6
			c-0.2-0.8-0.7-1.3-1.6-1.3c-1.5,0-2,1.2-2,2.5c0,1.2,0.5,2.4,1.9,2.4c1,0,1.6-0.6,1.8-1.6h1.1c-0.2,1.6-1.2,2.5-2.8,2.5
			c-2,0-3-1.4-3-3.3c0-1.9,1-3.5,3-3.5c1.5,0,2.6,0.7,2.8,2.2H307z M310.8,55.5h1.3v0.9h-1.3v4c0,0.5,0.1,0.6,0.8,0.6h0.5v0.9h-0.8
			c-1.1,0-1.5-0.2-1.5-1.4v-4.1h-1.1v-0.9h1.1v-1.9h1.1V55.5z M318.6,61.9h-1v-1h0c-0.4,0.8-1.2,1.2-2.1,1.2c-1.7,0-2.2-1-2.2-2.4
			v-4.2h1.1v4.4c0,0.8,0.5,1.3,1.3,1.3c1.3,0,1.9-0.9,1.9-2v-3.6h1.1V61.9z M320.1,55.5h1v1.4h0c0.5-1,1.2-1.5,2.4-1.5v1.1
			c-1.7,0-2.3,1-2.3,2.6v2.9h-1.1L320.1,55.5L320.1,55.5z M330,61.9c-0.2,0.1-0.4,0.2-0.8,0.2c-0.5,0-0.9-0.3-0.9-1
			c-0.6,0.7-1.4,1-2.3,1c-1.2,0-2.1-0.5-2.1-1.8c0-1.5,1.1-1.8,2.2-2c1.2-0.2,2.2-0.1,2.2-0.9c0-0.9-0.8-1.1-1.4-1.1
			c-0.9,0-1.6,0.3-1.6,1.2h-1.1c0.1-1.6,1.3-2.2,2.7-2.2c1.2,0,2.4,0.3,2.4,1.8v3.3c0,0.5,0,0.7,0.3,0.7c0.1,0,0.2,0,0.3-0.1V61.9z
			 M328.3,58.6c-0.4,0.3-1.2,0.3-1.9,0.4c-0.7,0.1-1.3,0.4-1.3,1.2c0,0.7,0.6,0.9,1.2,0.9c1.4,0,2-0.9,2-1.5V58.6z M193.9,67.3h3.1
			c2.7,0,4.3,1.4,4.3,4.2c0,3-1.3,4.7-4.3,4.7h-3.1V67.3z M195.1,75.2h2c0.8,0,3-0.2,3-3.5c0-2.1-0.8-3.4-3-3.4h-2L195.1,75.2
			L195.1,75.2z M203.6,68.6h-1.1v-1.3h1.1V68.6z M202.6,69.7h1.1v6.4h-1.1V69.7z M205.9,74.1c0,0.9,0.9,1.2,1.7,1.2
			c0.7,0,1.6-0.1,1.6-1c0-0.8-1-1-2.1-1.2c-1-0.2-2.1-0.6-2.1-1.8c0-1.3,1.3-1.8,2.4-1.8c1.4,0,2.6,0.5,2.6,2H209
			c-0.1-0.8-0.8-1.1-1.5-1.1c-0.6,0-1.4,0.2-1.4,0.8c0,0.8,1.1,0.9,2.1,1.1c1.1,0.2,2.1,0.6,2.1,1.8c0,1.5-1.4,2-2.7,2
			c-1.4,0-2.7-0.6-2.7-2.2L205.9,74.1L205.9,74.1z M217,74.1c-0.3,1.4-1.3,2.2-2.8,2.2c-2.1,0-3-1.4-3.1-3.4c0-1.9,1.3-3.4,3-3.4
			c2.3,0,3,2.1,2.9,3.7h-4.8c0,1.1,0.6,2.1,2,2.1c0.9,0,1.5-0.4,1.7-1.3H217z M216,72.3c-0.1-1-0.8-1.8-1.9-1.8
			c-1.1,0-1.8,0.8-1.8,1.8H216z M218.2,69.7h1v1h0c0.4-0.8,1.2-1.2,2.1-1.2c1.7,0,2.2,1,2.2,2.4v4.2h-1.1v-4.4
			c0-0.8-0.5-1.3-1.3-1.3c-1.3,0-1.9,0.9-1.9,2v3.6h-1.1L218.2,69.7L218.2,69.7z M223,67.3c-0.1,0.3-0.2,0.7-0.4,1
			c-0.2,0.2-0.5,0.4-1,0.4c-0.2,0-0.5-0.1-0.8-0.3c-0.3-0.1-0.6-0.2-0.8-0.2c-0.3,0-0.6,0.2-0.6,0.5h-0.6c0.2-0.7,0.5-1.4,1.3-1.4
			c0.3,0,0.6,0.1,0.9,0.2c0.3,0.1,0.6,0.2,0.8,0.2c0.3,0,0.5-0.3,0.6-0.5C222.4,67.3,223,67.3,223,67.3z M227.9,69.6
			c2,0,3.1,1.5,3.1,3.4c0,1.9-1.1,3.4-3.1,3.4c-2,0-3.1-1.5-3.1-3.4C224.8,71.1,225.8,69.6,227.9,69.6z M227.9,75.4
			c1.1,0,2-0.9,2-2.4c0-1.6-0.9-2.4-2-2.4c-1.1,0-2,0.9-2,2.4C225.9,74.5,226.8,75.4,227.9,75.4z M238.2,77
			c-0.5,1.3-0.9,1.7-1.9,1.7c-0.2,0-0.5,0-0.7-0.1v-1c0.2,0.1,0.4,0.1,0.6,0.1c0.4,0,0.7-0.2,0.9-0.6l0.4-1.1l-2.6-6.4h1.2l1.9,5.3
			h0l1.8-5.3h1.1L238.2,77z M252.7,73c0,2.2-1.3,3.4-3.5,3.4c-2.3,0-3.6-1.1-3.6-3.4v-5.7h1.2V73c0,1.6,0.9,2.4,2.5,2.4
			c1.5,0,2.3-0.9,2.3-2.4v-5.7h1.2L252.7,73L252.7,73z M254.4,69.7h1v1.4h0c0.5-1,1.2-1.5,2.4-1.5v1.1c-1.7,0-2.3,1-2.3,2.6v2.9
			h-1.1L254.4,69.7L254.4,69.7z M258.6,67.3h1.1v3.3h0c0.3-0.7,1.2-1,2.1-1c2,0,3,1.6,3,3.4c0,1.8-1,3.3-2.9,3.3
			c-0.7,0-1.6-0.2-2.1-1h0v0.9h-1.1L258.6,67.3L258.6,67.3z M261.6,70.5c-1.4,0-2,1.2-2,2.4c0,1.3,0.6,2.4,2,2.4
			c1.4,0,1.9-1.2,1.9-2.5C263.6,71.7,262.9,70.5,261.6,70.5z M271.6,76.2c-0.2,0.1-0.4,0.2-0.8,0.2c-0.5,0-0.9-0.3-0.9-1
			c-0.6,0.7-1.4,1-2.3,1c-1.2,0-2.1-0.5-2.1-1.8c0-1.5,1.1-1.8,2.2-2c1.2-0.2,2.2-0.1,2.2-0.9c0-0.9-0.8-1.1-1.4-1.1
			c-0.9,0-1.6,0.3-1.6,1.2h-1.1c0.1-1.6,1.3-2.2,2.7-2.2c1.2,0,2.4,0.3,2.4,1.8v3.3c0,0.5,0,0.7,0.3,0.7c0.1,0,0.2,0,0.3-0.1V76.2z
			 M269.9,72.9c-0.4,0.3-1.2,0.3-1.9,0.4c-0.7,0.1-1.3,0.4-1.3,1.2c0,0.7,0.6,0.9,1.2,0.9c1.4,0,2-0.9,2-1.5V72.9z M272.6,69.7h1v1
			h0c0.4-0.8,1.2-1.2,2.1-1.2c1.7,0,2.2,1,2.2,2.4v4.2h-1.1v-4.4c0-0.8-0.5-1.3-1.3-1.3c-1.3,0-1.9,0.9-1.9,2v3.6h-1.1L272.6,69.7
			L272.6,69.7z M280.7,68.6h-1.1v-1.3h1.1V68.6z M279.6,69.7h1.1v6.4h-1.1V69.7z M283,74.1c0,0.9,0.9,1.2,1.7,1.2
			c0.7,0,1.6-0.1,1.6-1c0-0.8-1-1-2.1-1.2c-1-0.2-2.1-0.6-2.1-1.8c0-1.3,1.3-1.8,2.4-1.8c1.4,0,2.6,0.5,2.6,2H286
			c-0.1-0.8-0.8-1.1-1.5-1.1c-0.6,0-1.4,0.2-1.4,0.8c0,0.8,1.1,0.9,2.1,1.1c1.1,0.2,2.1,0.6,2.1,1.8c0,1.5-1.4,2-2.7,2
			c-1.4,0-2.7-0.6-2.7-2.2L283,74.1L283,74.1z M288.5,69.7h1v0.9h0c0.5-0.7,1.2-1.1,2.1-1.1c0.8,0,1.5,0.3,1.8,1.1
			c0.4-0.7,1.2-1.1,2-1.1c1.3,0,2.1,0.5,2.1,1.9v4.7h-1.1V72c0-0.8-0.2-1.4-1.2-1.4c-1,0-1.7,0.6-1.7,1.6v4h-1.1V72
			c0-0.8-0.3-1.4-1.2-1.4c-1.3,0-1.7,1.2-1.7,1.6v4h-1.1L288.5,69.7L288.5,69.7z M301.9,69.6c2,0,3.1,1.5,3.1,3.4
			c0,1.9-1.1,3.4-3.1,3.4c-2,0-3.1-1.5-3.1-3.4C298.8,71.1,299.9,69.6,301.9,69.6z M301.9,75.4c1.1,0,2-0.9,2-2.4
			c0-1.6-0.9-2.4-2-2.4c-1.1,0-2,0.9-2,2.4C299.9,74.5,300.8,75.4,301.9,75.4z"/>
	</g>
	<path class="st0" d="M113.5,26.6c0,8.8-4.1,13.2-13.3,13.2S87,35.5,87,26.6V8.7h7.9v18.4c0,3.9,1.5,5.9,5.3,5.9s5.3-2,5.3-5.9V8.7
		h7.9V26.6z M118.8,8.7h14.3c5.3-0.1,11,1.3,11,7.6c0,2.7-1.6,5-4,6.2c3.2,0.9,5.3,3.8,5.3,7.2c0,7.3-5.3,9.5-11.9,9.5h-14.6V8.7z
		 M126.8,20.7h6.1c1.4,0,3.2-0.7,3.2-2.9c0-2.2-1.6-2.9-3.2-2.9h-6.1V20.7z M126.8,32.9h6.4c2.5,0,4.3-0.9,4.3-3.4
		c0-2.7-1.9-3.6-4.3-3.6h-6.4C126.8,25.9,126.8,32.9,126.8,32.9z M157.9,8.7h8.1l11.4,30.5h-8.3l-1.9-5.5h-10.6l-1.9,5.5h-8.2
		L157.9,8.7z M158.4,27.9h6.9L162,17.2h-0.1L158.4,27.9z M179.8,31.3h7.9v7c0,6.1-4.7,8-7.9,8.3v-3.4c2.3-0.6,3.2-1.8,3.5-4h-3.5
		V31.3z M94.6,58.6c0,2.4-1.4,3.6-3.8,3.6c-2.4,0-3.8-1.2-3.8-3.6v-5.5h2v5.5c0,1,0.3,1.9,1.8,1.9c1.4,0,1.8-0.6,1.8-1.9v-5.5h2
		V58.6z M96.1,55.5h1.7v0.9h0c0.4-0.7,1.2-1.1,2-1.1c1.9,0,2.4,1.1,2.4,2.7v4h-1.8v-3.6c0-1.1-0.3-1.6-1.1-1.6c-1,0-1.4,0.5-1.4,1.8
		v3.4h-1.8C96.1,61.9,96.1,55.5,96.1,55.5z M105.3,54.5h-1.8v-1.5h1.8V54.5z M103.6,55.5h1.8V62h-1.8V55.5z M110.3,62h-2l-2.2-6.4
		h1.9l1.4,4.4h0l1.4-4.4h1.8L110.3,62z M114.7,59.2c0.1,1.1,0.6,1.6,1.6,1.6c0.7,0,1.3-0.4,1.4-0.8h1.6c-0.5,1.5-1.6,2.2-3,2.2
		c-2,0-3.3-1.4-3.3-3.4c0-1.9,1.3-3.4,3.3-3.4c2.2,0,3.3,1.8,3.1,3.8H114.7z M117.5,58c-0.2-0.9-0.5-1.4-1.4-1.4
		c-1.1,0-1.4,0.9-1.5,1.4H117.5z M120.3,55.5h1.7v1.2h0c0.3-0.8,1.2-1.4,2.1-1.4c0.1,0,0.3,0,0.4,0.1V57c-0.2,0-0.4-0.1-0.6-0.1
		c-1.3,0-1.7,0.9-1.7,2.1v2.9h-1.8V55.5z M126.6,59.9c0,0.8,0.7,1.1,1.4,1.1c0.5,0,1.2-0.2,1.2-0.8c0-0.5-0.7-0.7-2-1
		c-1-0.2-2-0.6-2-1.7c0-1.6,1.4-2.1,2.8-2.1c1.4,0,2.7,0.5,2.8,2.1H129c-0.1-0.7-0.6-0.9-1.2-0.9c-0.4,0-1,0.1-1,0.6
		c0,0.6,1,0.7,2,1c1,0.2,2,0.6,2,1.8c0,1.7-1.5,2.2-2.9,2.2c-1.5,0-3-0.6-3-2.3C124.9,59.9,126.6,59.9,126.6,59.9z M133.7,54.5h-1.8
		v-1.5h1.8V54.5z M131.9,55.5h1.8V62h-1.8V55.5z M139.7,61.1L139.7,61.1c-0.4,0.7-1.2,1-2,1c-1.9,0-2.9-1.7-2.9-3.5
		c0-1.7,1-3.3,2.9-3.3c0.8,0,1.5,0.3,1.9,1h0v-3.2h1.8V62h-1.7L139.7,61.1L139.7,61.1z M138.1,56.7c-1.2,0-1.6,1-1.6,2.1
		c0,1,0.5,2.1,1.6,2.1c1.2,0,1.5-1,1.5-2.1C139.7,57.7,139.3,56.7,138.1,56.7z M142.6,57.5c0.1-1.7,1.6-2.2,3-2.2
		c1.3,0,2.8,0.3,2.8,1.8v3.4c0,0.6,0.1,1.2,0.2,1.4h-1.8c-0.1-0.2-0.1-0.4-0.1-0.6c-0.6,0.6-1.4,0.8-2.2,0.8c-1.2,0-2.2-0.6-2.2-1.9
		c0-1.5,1.1-1.8,2.2-2c1.1-0.2,2.1-0.1,2.1-0.8c0-0.8-0.5-0.9-1.1-0.9c-0.7,0-1.1,0.3-1.2,1L142.6,57.5L142.6,57.5z M146.7,58.8
		c-0.3,0.3-0.9,0.3-1.5,0.4c-0.5,0.1-1,0.3-1,0.9c0,0.7,0.5,0.8,1.1,0.8c1.4,0,1.4-1.1,1.4-1.5L146.7,58.8L146.7,58.8z M154.4,61.1
		L154.4,61.1c-0.4,0.7-1.2,1-2,1c-1.9,0-2.9-1.7-2.9-3.5c0-1.7,1-3.3,2.9-3.3c0.8,0,1.5,0.3,1.9,1h0v-3.2h1.8V62h-1.7V61.1z
		 M152.9,56.7c-1.2,0-1.6,1-1.6,2.1c0,1,0.5,2.1,1.6,2.1c1.2,0,1.5-1,1.5-2.1C154.4,57.7,154,56.7,152.9,56.7z M91.5,75.4L91.5,75.4
		c-0.4,0.7-1.2,1-2,1c-1.9,0-2.9-1.7-2.9-3.5c0-1.7,1-3.3,2.9-3.3c0.8,0,1.5,0.3,1.9,1h0v-3.2h1.8v8.9h-1.7L91.5,75.4L91.5,75.4z
		 M89.9,70.9c-1.2,0-1.6,1-1.6,2.1c0,1,0.5,2.1,1.6,2.1c1.2,0,1.5-1,1.5-2.1C91.5,71.9,91.1,70.9,89.9,70.9z M96,73.4
		c0.1,1.1,0.6,1.6,1.6,1.6c0.7,0,1.3-0.4,1.4-0.8h1.6c-0.5,1.5-1.6,2.2-3,2.2c-2,0-3.3-1.4-3.3-3.4c0-1.9,1.3-3.4,3.3-3.4
		c2.2,0,3.3,1.8,3.1,3.8C100.6,73.4,96,73.4,96,73.4z M98.8,72.3c-0.2-0.9-0.5-1.4-1.4-1.4c-1.1,0-1.4,0.9-1.5,1.4H98.8z
		 M105.3,67.3h4.2c1.7,0,2.8,0.5,2.8,2.2c0,0.9-0.4,1.5-1.2,1.9c1.1,0.3,1.6,1.1,1.6,2.3c0,1.8-1.5,2.6-3.1,2.6h-4.3V67.3z
		 M107.3,70.9h2c0.7,0,1.2-0.3,1.2-1.1c0-0.8-0.6-1-1.3-1h-1.8L107.3,70.9L107.3,70.9z M107.3,74.7h2.1c0.8,0,1.4-0.2,1.4-1.2
		c0-0.9-0.6-1.3-1.4-1.3h-2.1L107.3,74.7L107.3,74.7z M119.9,76.2h-1.7v-0.9h0c-0.4,0.7-1.2,1.1-2,1.1c-1.9,0-2.4-1.1-2.4-2.7v-4
		h1.8v3.6c0,1.1,0.3,1.6,1.1,1.6c1,0,1.4-0.5,1.4-1.8v-3.4h1.8L119.9,76.2L119.9,76.2z M122.7,73.4c0.1,1.1,0.6,1.6,1.6,1.6
		c0.7,0,1.3-0.4,1.4-0.8h1.6c-0.5,1.5-1.6,2.2-3,2.2c-2,0-3.3-1.4-3.3-3.4c0-1.9,1.3-3.4,3.3-3.4c2.2,0,3.3,1.8,3.1,3.8
		C127.4,73.4,122.7,73.4,122.7,73.4z M125.6,72.3c-0.2-0.9-0.5-1.4-1.4-1.4c-1.1,0-1.4,0.9-1.5,1.4H125.6z M128.4,69.7h1.7v0.9h0
		c0.4-0.7,1.2-1.1,2-1.1c1.9,0,2.4,1.1,2.4,2.7v4h-1.8v-3.6c0-1.1-0.3-1.6-1.1-1.6c-1,0-1.4,0.5-1.4,1.8v3.4h-1.8V69.7z M138.9,69.6
		c2,0,3.3,1.3,3.3,3.4c0,2-1.3,3.4-3.3,3.4c-2,0-3.3-1.3-3.3-3.4C135.6,70.9,136.9,69.6,138.9,69.6z M138.9,75c1.2,0,1.6-1,1.6-2.1
		c0-1-0.4-2.1-1.6-2.1c-1.2,0-1.6,1-1.6,2.1C137.4,74,137.7,75,138.9,75z M144.8,74.1c0,0.8,0.7,1.1,1.4,1.1c0.5,0,1.2-0.2,1.2-0.8
		c0-0.5-0.7-0.7-2-1c-1-0.2-2-0.6-2-1.7c0-1.6,1.4-2.1,2.8-2.1c1.4,0,2.7,0.5,2.8,2.1h-1.7c-0.1-0.7-0.6-0.9-1.2-0.9
		c-0.4,0-1,0.1-1,0.6c0,0.6,1,0.7,2,1c1,0.2,2,0.6,2,1.8c0,1.7-1.5,2.2-2.9,2.2c-1.5,0-3-0.6-3-2.3H144.8z M156.2,67.3h2l3.3,8.9h-2
		l-0.7-2h-3.3l-0.7,2h-2L156.2,67.3z M156,72.7h2.3l-1.1-3.3h0L156,72.7z M163.9,68.7h-1.8v-1.5h1.8V68.7z M162.1,69.7h1.8v6.4h-1.8
		V69.7z M165.3,69.7h1.7v1.2h0c0.3-0.8,1.2-1.4,2.1-1.4c0.1,0,0.3,0,0.4,0.1v1.6c-0.2,0-0.4-0.1-0.6-0.1c-1.3,0-1.7,0.9-1.7,2.1v2.9
		h-1.8L165.3,69.7L165.3,69.7z M171.4,73.4c0.1,1.1,0.6,1.6,1.6,1.6c0.7,0,1.3-0.4,1.4-0.8h1.6c-0.5,1.5-1.6,2.2-3,2.2
		c-2,0-3.3-1.4-3.3-3.4c0-1.9,1.3-3.4,3.3-3.4c2.2,0,3.3,1.8,3.1,3.8C176,73.4,171.4,73.4,171.4,73.4z M174.3,72.3
		c-0.2-0.9-0.5-1.4-1.4-1.4c-1.1,0-1.4,0.9-1.5,1.4H174.3z M178.4,74.1c0,0.8,0.7,1.1,1.4,1.1c0.5,0,1.2-0.2,1.2-0.8
		c0-0.5-0.7-0.7-2-1c-1-0.2-2-0.6-2-1.7c0-1.6,1.4-2.1,2.8-2.1c1.4,0,2.7,0.5,2.8,2.1h-1.7c-0.1-0.7-0.6-0.9-1.2-0.9
		c-0.4,0-1,0.1-1,0.6c0,0.6,1,0.7,2,1c1,0.2,2,0.6,2,1.8c0,1.7-1.5,2.2-2.9,2.2c-1.5,0-3-0.6-3-2.3H178.4z"/>
</g>
</svg>
